<svg width="34" height="34" viewBox="0 0 34 34" fill="none" xmlns="http://www.w3.org/2000/svg">
<g filter="url(#filter0_ddd_2526_13939)">
<g clip-path="url(#clip0_2526_13939)">
<rect x="5" y="1" width="24" height="24" rx="12" fill="white"/>
<path d="M14 8.08333C14 7.48502 13.5523 7 13 7C12.4477 7 12 7.48502 12 8.08333V18.9167C12 19.515 12.4477 20 13 20C13.5523 20 14 19.515 14 18.9167V8.08333Z" fill="#0F172A"/>
<path d="M21 8.08333C21 7.48502 20.5523 7 20 7C19.4477 7 19 7.48502 19 8.08333V18.9167C19 19.515 19.4477 20 20 20C20.5523 20 21 19.515 21 18.9167V8.08333Z" fill="#0F172A"/>
</g>
</g>
<defs>
<filter id="filter0_ddd_2526_13939" x="0" y="0" width="34" height="34" filterUnits="userSpaceOnUse" color-interpolation-filters="sRGB">
<feFlood flood-opacity="0" result="BackgroundImageFix"/>
<feColorMatrix in="SourceAlpha" type="matrix" values="0 0 0 0 0 0 0 0 0 0 0 0 0 0 0 0 0 0 127 0" result="hardAlpha"/>
<feMorphology radius="2" operator="erode" in="SourceAlpha" result="effect1_dropShadow_2526_13939"/>
<feOffset dy="2"/>
<feGaussianBlur stdDeviation="2"/>
<feComposite in2="hardAlpha" operator="out"/>
<feColorMatrix type="matrix" values="0 0 0 0 0 0 0 0 0 0 0 0 0 0 0 0 0 0 0.1 0"/>
<feBlend mode="normal" in2="BackgroundImageFix" result="effect1_dropShadow_2526_13939"/>
<feColorMatrix in="SourceAlpha" type="matrix" values="0 0 0 0 0 0 0 0 0 0 0 0 0 0 0 0 0 0 127 0" result="hardAlpha"/>
<feMorphology radius="1" operator="erode" in="SourceAlpha" result="effect2_dropShadow_2526_13939"/>
<feOffset dy="4"/>
<feGaussianBlur stdDeviation="3"/>
<feComposite in2="hardAlpha" operator="out"/>
<feColorMatrix type="matrix" values="0 0 0 0 0 0 0 0 0 0 0 0 0 0 0 0 0 0 0.1 0"/>
<feBlend mode="normal" in2="effect1_dropShadow_2526_13939" result="effect2_dropShadow_2526_13939"/>
<feColorMatrix in="SourceAlpha" type="matrix" values="0 0 0 0 0 0 0 0 0 0 0 0 0 0 0 0 0 0 127 0" result="hardAlpha"/>
<feMorphology radius="1" operator="dilate" in="SourceAlpha" result="effect3_dropShadow_2526_13939"/>
<feOffset/>
<feComposite in2="hardAlpha" operator="out"/>
<feColorMatrix type="matrix" values="0 0 0 0 0.0588235 0 0 0 0 0.0901961 0 0 0 0 0.164706 0 0 0 0.05 0"/>
<feBlend mode="normal" in2="effect2_dropShadow_2526_13939" result="effect3_dropShadow_2526_13939"/>
<feBlend mode="normal" in="SourceGraphic" in2="effect3_dropShadow_2526_13939" result="shape"/>
</filter>
<clipPath id="clip0_2526_13939">
<rect x="5" y="1" width="24" height="24" rx="12" fill="white"/>
</clipPath>
</defs>
</svg>
