<svg width="24" height="24" viewBox="0 0 24 24" fill="none" xmlns="http://www.w3.org/2000/svg">
  <path fill-rule="evenodd" clip-rule="evenodd" d="M4 12C4 7.58172 7.58172 4 12 4C16.4183 4 20 7.58172 20 12C20 16.4183 16.4183 20 12 20C7.58172 20 4 16.4183 4 12ZM12 2C6.47715 2 2 6.47715 2 12C2 17.5228 6.47715 22 12 22C17.5228 22 22 17.5228 22 12C22 6.47715 17.5228 2 12 2ZM17.1691 8.85151C16.7178 8.38283 15.9779 8.38283 15.5265 8.85151L10.5507 14.0183L8.47348 11.8613C8.02212 11.3926 7.28223 11.3926 6.83087 11.8613C6.38971 12.3194 6.38971 13.0546 6.83087 13.5127L9.11455 15.884C9.90549 16.7053 11.196 16.7053 11.9869 15.884L17.1691 10.5029C17.6103 10.0448 17.6103 9.30961 17.1691 8.85151Z" fill="currentColor"/>
</svg>
