<svg width="24" height="24" viewBox="0 0 24 24" fill="none" xmlns="http://www.w3.org/2000/svg">
<path d="M5 19C4.34339 19 3.69321 18.8707 3.08658 18.6194C2.47995 18.3681 1.92876 17.9998 1.46447 17.5355C0.526784 16.5979 0 15.3261 0 14C0 12.6739 0.526784 11.4021 1.46447 10.4645C2.40215 9.52678 3.67392 9 5 9C6 6.65 8.3 5 11 5C14.43 5 17.24 7.66 17.5 11.03L18 11C19.0609 11 20.0783 11.4214 20.8284 12.1716C21.5786 12.9217 22 13.9391 22 15C22 16.0609 21.5786 17.0783 20.8284 17.8284C20.0783 18.5786 19.0609 19 18 19H5ZM18 13H16V12C16 10.6739 15.4732 9.40215 14.5355 8.46447C13.5979 7.52678 12.3261 7 11 7C8.5 7 6.45 8.82 6.06 11.19C5.73 11.07 5.37 11 5 11C4.20435 11 3.44129 11.3161 2.87868 11.8787C2.31607 12.4413 2 13.2044 2 14C2 14.7956 2.31607 15.5587 2.87868 16.1213C3.44129 16.6839 4.20435 17 5 17H18C18.5304 17 19.0391 16.7893 19.4142 16.4142C19.7893 16.0391 20 15.5304 20 15C20 14.4696 19.7893 13.9609 19.4142 13.5858C19.0391 13.2107 18.5304 13 18 13Z" fill="black"/>
</svg>
