<svg width="20" height="20" viewBox="0 0 20 20" fill="none" xmlns="http://www.w3.org/2000/svg">
<path fill-rule="evenodd" clip-rule="evenodd" d="M6.73443 2.12141C6.73443 1.00141 7.643 0.0928345 8.763 0.0928345H17.9544C18.4922 0.0932132 19.0078 0.307104 19.3879 0.687494C19.768 1.06788 19.9816 1.58364 19.9816 2.12141V17.8785C19.9816 18.4166 19.7678 18.9325 19.3874 19.313C19.007 19.6934 18.491 19.9071 17.953 19.9071H10.953C11.063 19.6014 11.1244 19.2714 11.1244 18.9286V16.3314C11.1244 16.2133 11.1197 16.0957 11.1101 15.9785C11.3597 16.0233 11.6125 16.0457 11.8687 16.0457H13.8287C14.5165 16.0457 15.1811 15.7976 15.7007 15.347C16.2203 14.8964 16.5599 14.2735 16.6571 13.5926C16.7544 12.9118 16.6028 12.2187 16.2302 11.6406C15.8576 11.0625 15.289 10.6383 14.6287 10.4457C15.0889 10.0159 15.4444 9.48611 15.6676 8.89727C15.8908 8.30843 15.9759 7.6762 15.9163 7.04929C15.8566 6.42239 15.6539 5.81754 15.3237 5.28133C14.9934 4.74513 14.5445 4.29189 14.0115 3.95653C13.4785 3.62117 12.8756 3.41263 12.2493 3.34699C11.623 3.28135 10.99 3.36035 10.399 3.57792C9.80807 3.79548 9.27494 4.14579 8.84071 4.60188C8.40648 5.05796 8.08274 5.60763 7.89443 6.20855C7.52513 6.05155 7.13561 5.9472 6.73728 5.89855V2.12141H6.73443ZM9.49157 7.43855C9.49157 6.82097 9.7369 6.22869 10.1736 5.792C10.6103 5.35531 11.2026 5.10998 11.8201 5.10998C12.4377 5.10998 13.03 5.35531 13.4667 5.792C13.9034 6.22869 14.1487 6.82097 14.1487 7.43855C14.1487 8.05612 13.9034 8.64841 13.4667 9.0851C13.03 9.52179 12.4377 9.76712 11.8201 9.76712C11.2026 9.76712 10.6103 9.52179 10.1736 9.0851C9.7369 8.64841 9.49157 8.05612 9.49157 7.43855ZM9.61014 9.75284L9.613 9.75712L11.7416 11.8857C11.7756 11.919 11.8211 11.9379 11.8687 11.9385H13.8273C14.1588 11.9385 14.4767 12.0702 14.7112 12.3047C14.9456 12.5391 15.0773 12.857 15.0773 13.1885C15.0773 13.5201 14.9456 13.838 14.7112 14.0724C14.4767 14.3069 14.1588 14.4385 13.8273 14.4385H11.8687C11.1587 14.4385 10.4773 14.1571 9.97443 13.6543L8.72585 12.4057L7.71157 13.42L8.73157 14.4371C9.233 14.94 9.51585 15.6214 9.51585 16.3314V18.5714C9.51585 18.9029 9.38416 19.2209 9.14974 19.4553C8.91532 19.6897 8.59737 19.8214 8.26585 19.8214C7.93433 19.8214 7.61639 19.6897 7.38197 19.4553C7.14755 19.2209 7.01585 18.9029 7.01585 18.5714V16.3314C7.01481 16.2843 6.99592 16.2394 6.963 16.2057L5.92728 15.1685C5.46113 15.522 4.89231 15.7137 4.30728 15.7143H1.42871C1.09719 15.7143 0.779248 15.5826 0.544827 15.3481C0.310407 15.1137 0.178711 14.7958 0.178711 14.4643C0.178711 14.1327 0.310407 13.8148 0.544827 13.5804C0.779248 13.346 1.09719 13.2143 1.42871 13.2143H4.30728C4.35487 13.2136 4.40038 13.1947 4.43443 13.1614L6.95728 10.6371L6.34585 10.0271C6.31217 9.9942 6.26723 9.9753 6.22014 9.97426H3.623C3.29148 9.97426 2.97353 9.84257 2.73911 9.60815C2.50469 9.37373 2.373 9.05578 2.373 8.72426C2.373 8.39274 2.50469 8.0748 2.73911 7.84038C2.97353 7.60596 3.29148 7.47426 3.623 7.47426H6.22157C6.93157 7.47426 7.613 7.75712 8.11443 8.25998L9.60585 9.74998L9.61014 9.75284Z"  fill="currentColor"/>
</svg>
