<svg width="24" height="24" viewBox="0 0 24 24" fill="none" xmlns="http://www.w3.org/2000/svg">
  <path fill-rule="evenodd" clip-rule="evenodd" d="M8.4001 4.80001C8.4001 3.84523 8.77938 2.92956 9.45451 2.25443C10.1296 1.5793 11.0453 1.20001 12.0001 1.20001C12.9549 1.20001 13.8706 1.5793 14.5457 2.25443C15.2208 2.92956 15.6001 3.84523 15.6001 4.80001V9.60001C15.6001 10.5548 15.2208 11.4705 14.5457 12.1456C13.8706 12.8207 12.9549 13.2 12.0001 13.2C11.0453 13.2 10.1296 12.8207 9.45451 12.1456C8.77938 11.4705 8.4001 10.5548 8.4001 9.60001V4.80001ZM13.2001 17.916C15.1996 17.6272 17.028 16.6275 18.3503 15.1002C19.6727 13.5729 20.4004 11.6202 20.4001 9.60001C20.4001 9.28175 20.2737 8.97653 20.0486 8.75148C19.8236 8.52644 19.5184 8.40001 19.2001 8.40001C18.8818 8.40001 18.5766 8.52644 18.3516 8.75148C18.1265 8.97653 18.0001 9.28175 18.0001 9.60001C18.0001 11.1913 17.368 12.7174 16.2427 13.8427C15.1175 14.9679 13.5914 15.6 12.0001 15.6C10.4088 15.6 8.88268 14.9679 7.75746 13.8427C6.63224 12.7174 6.0001 11.1913 6.0001 9.60001C6.0001 9.28175 5.87367 8.97653 5.64863 8.75148C5.42358 8.52644 5.11836 8.40001 4.8001 8.40001C4.48184 8.40001 4.17661 8.52644 3.95157 8.75148C3.72653 8.97653 3.6001 9.28175 3.6001 9.60001C3.59983 11.6202 4.32754 13.5729 5.64988 15.1002C6.97222 16.6275 8.80064 17.6272 10.8001 17.916V20.4H7.2001C6.88184 20.4 6.57661 20.5264 6.35157 20.7515C6.12653 20.9765 6.0001 21.2818 6.0001 21.6C6.0001 21.9183 6.12653 22.2235 6.35157 22.4485C6.57661 22.6736 6.88184 22.8 7.2001 22.8H16.8001C17.1184 22.8 17.4236 22.6736 17.6486 22.4485C17.8737 22.2235 18.0001 21.9183 18.0001 21.6C18.0001 21.2818 17.8737 20.9765 17.6486 20.7515C17.4236 20.5264 17.1184 20.4 16.8001 20.4H13.2001V17.916Z" fill="currentColor"/>
</svg>
