<svg width="24" height="24" viewBox="0 0 24 24" fill="none" xmlns="http://www.w3.org/2000/svg">
<path fill-rule="evenodd" clip-rule="evenodd" d="M9 5.39996C9 4.60431 9.31607 3.84125 9.87868 3.27864C10.4413 2.71603 11.2044 2.39996 12 2.39996C12.7956 2.39996 13.5587 2.71603 14.1213 3.27864C14.6839 3.84125 15 4.60431 15 5.39996V10.2C15 10.9956 14.6839 11.7587 14.1213 12.3213C13.5587 12.8839 12.7956 13.2 12 13.2C11.2044 13.2 10.4413 12.8839 9.87868 12.3213C9.31607 11.7587 9 10.9956 9 10.2V5.39996Z"  fill="currentColor"/>
<path d="M12.0001 22.2C8.5993 22.2 6.6001 21.9504 6.6001 21C6.6001 20.0496 8.5993 19.8 12.0001 19.8C15.4009 19.8 17.4001 20.0496 17.4001 21C17.4001 21.9504 15.4009 22.2 12.0001 22.2Z" fill="currentColor"/>
<path d="M10.8433 16.2H13.2433V21.6H10.8433V16.2Z" fill="currentColor"/>
<path d="M16.8003 9.59996C16.8003 9.2817 16.9267 8.97648 17.1518 8.75144C17.3768 8.52639 17.682 8.39996 18.0003 8.39996C18.3186 8.39996 18.6238 8.52639 18.8488 8.75144C19.0739 8.97648 19.2003 9.2817 19.2003 9.59996V11.76C19.2003 15.2568 15.9351 18 12.0003 18C8.06549 18 4.80029 15.2568 4.80029 11.76V9.59996C4.80029 9.2817 4.92672 8.97648 5.15177 8.75144C5.37681 8.52639 5.68203 8.39996 6.00029 8.39996C6.31855 8.39996 6.62378 8.52639 6.84882 8.75144C7.07386 8.97648 7.20029 9.2817 7.20029 9.59996V11.76C7.20029 13.83 9.30749 15.6 12.0003 15.6C14.6931 15.6 16.8003 13.83 16.8003 11.76V9.59996Z" fill="currentColor"/>
<path d="M1.5517 3.24838C1.33311 3.02205 1.21216 2.71893 1.21489 2.40429C1.21762 2.08966 1.34383 1.78868 1.56632 1.56619C1.78881 1.3437 2.08978 1.2175 2.40442 1.21477C2.71905 1.21203 3.02218 1.33299 3.2485 1.55158L22.4485 20.7516C22.6671 20.9779 22.788 21.281 22.7853 21.5957C22.7826 21.9103 22.6564 22.2113 22.4339 22.4338C22.2114 22.6562 21.9104 22.7825 21.5958 22.7852C21.2811 22.7879 20.978 22.667 20.7517 22.4484L1.5517 3.24838Z" fill="currentColor"/>
</svg>
