<svg width="24" height="24" viewBox="0 0 24 24" fill="none" xmlns="http://www.w3.org/2000/svg">
<path fill-rule="evenodd" clip-rule="evenodd" d="M13.174 3.5971C13.8664 3.20501 14.6861 3.10399 15.4529 3.31629C15.7929 3.41041 16.0834 3.57439 16.3572 3.7596C16.6173 3.9355 16.9157 4.16839 17.2614 4.4383L17.3119 4.47768C17.6577 4.74758 17.956 4.98047 18.1898 5.19007C18.436 5.41076 18.6656 5.65278 18.8394 5.95975C19.2315 6.65208 19.3325 7.47181 19.1202 8.23862C19.0261 8.57861 18.8621 8.86913 18.6769 9.14298C18.501 9.40307 18.2681 9.70143 17.9982 10.0472L10.8954 19.1465C10.8774 19.1695 10.8597 19.1922 10.8422 19.2147C10.5088 19.6422 10.2567 19.9654 9.94462 20.2309C9.68048 20.4556 9.38823 20.645 9.07524 20.7943C8.70547 20.9707 8.30745 21.0688 7.78096 21.1986C7.75336 21.2054 7.7254 21.2123 7.69708 21.2193L5.57227 21.7438C5.42511 21.7802 5.25714 21.8218 5.10897 21.8445C4.9438 21.8699 4.68801 21.8929 4.40551 21.8025C4.06591 21.6937 3.77616 21.4675 3.58821 21.1645C3.43188 20.9124 3.3921 20.6587 3.37662 20.4923C3.36274 20.343 3.36225 20.17 3.36182 20.0184C3.36179 20.009 3.36177 19.9997 3.36174 19.9905L3.35487 17.8298C3.35478 17.8006 3.35467 17.7718 3.35457 17.7434C3.35262 17.2012 3.35115 16.7913 3.43252 16.3897C3.5014 16.0498 3.61418 15.7204 3.76804 15.4096C3.9498 15.0424 4.20216 14.7194 4.53598 14.2921C4.55349 14.2697 4.57122 14.247 4.58917 14.224L11.6919 5.12465C11.9619 4.77886 12.1947 4.48049 12.4043 4.24671C12.625 4.00056 12.8671 3.77096 13.174 3.5971ZM14.9193 5.24378C14.6637 5.17302 14.3904 5.20669 14.1596 5.33739C14.1204 5.35958 14.046 5.41165 13.8935 5.58181C13.7349 5.75866 13.544 6.00241 13.2488 6.38049L16.402 8.84176C16.6971 8.46368 16.8872 8.21927 17.0202 8.02251C17.1483 7.83321 17.1807 7.74839 17.1927 7.70498C17.2635 7.44938 17.2298 7.17613 17.0991 6.94536C17.0769 6.90617 17.0249 6.83176 16.8547 6.6792C16.6779 6.52064 16.4341 6.32969 16.056 6.03457C15.678 5.73944 15.4335 5.54935 15.2368 5.41627C15.0475 5.28825 14.9627 5.2558 14.9193 5.24378ZM15.1713 10.4183L12.0182 7.95705L6.16573 15.4546C5.75597 15.9795 5.64042 16.1353 5.56044 16.2969C5.48351 16.4523 5.42712 16.617 5.39268 16.7869C5.35687 16.9636 5.35274 17.1575 5.35486 17.8234L5.36094 19.736L7.21772 19.2776C7.86423 19.118 8.05132 19.0669 8.21404 18.9892C8.37053 18.9146 8.51666 18.8199 8.64873 18.7075C8.78605 18.5907 8.90909 18.4408 9.31885 17.9159L15.1713 10.4183ZM12.0001 21.0003C12.0001 20.448 12.4479 20.0003 13.0001 20.0003H20.0001C20.5524 20.0003 21.0001 20.448 21.0001 21.0003C21.0001 21.5526 20.5524 22.0003 20.0001 22.0003H13.0001C12.4479 22.0003 12.0001 21.5526 12.0001 21.0003Z" fill="currentColor"/>
</svg>
