<svg width="24" height="24" viewBox="0 0 24 24" fill="none" xmlns="http://www.w3.org/2000/svg">
  <path d="M6.62 10.79C8.06 13.76 10.24 15.94 13.21 17.38L15.27 15.32C15.66 14.93 16.25 14.82 16.77 15.03C18.19 15.58 19.74 15.86 21.33 15.86C21.88 15.86 22.33 16.31 22.33 16.86V20.5C22.33 21.05 21.88 21.5 21.33 21.5C10.42 21.5 2.5 13.58 2.5 2.67C2.5 2.12 2.95 1.67 3.5 1.67H7.14C7.69 1.67 8.14 2.12 8.14 2.67C8.14 4.26 8.42 5.81 8.97 7.23C9.18 7.75 9.07 8.34 8.68 8.73L6.62 10.79Z" fill="currentColor"/>
</svg>
