<svg width="24" height="24" viewBox="0 0 24 24" fill="none" xmlns="http://www.w3.org/2000/svg">
<path d="M12.0182 4.51929C14.9762 4.51929 16.6538 6.40689 16.8974 8.68809H16.9718C18.875 8.68809 20.4182 10.1725 20.4182 12.0037C20.4182 13.8349 18.875 15.3193 16.9718 15.3193L16.1126 15.3181L16.1006 15.3481L14.321 18.5929C14.2494 18.7247 14.1311 18.8249 13.9894 18.8739C13.8476 18.9228 13.6927 18.9169 13.5551 18.8572C13.4175 18.7976 13.3072 18.6886 13.2459 18.5518C13.1847 18.4149 13.1769 18.26 13.2242 18.1177L13.2674 18.0181L14.7494 15.3181H12.5258L12.5138 15.3481L10.7342 18.5929C10.6626 18.7247 10.5443 18.8249 10.4026 18.8739C10.2608 18.9228 10.1059 18.9169 9.96828 18.8572C9.83068 18.7976 9.72039 18.6886 9.65914 18.5518C9.59789 18.4149 9.59012 18.26 9.63736 18.1177L9.68056 18.0181L11.1626 15.3181H8.91856L7.13416 18.5929C7.06683 18.7162 6.95836 18.8119 6.82766 18.8635C6.69697 18.915 6.55233 18.9191 6.41896 18.8749L6.32056 18.8317C6.19731 18.7646 6.10148 18.6564 6.04974 18.5259C5.99799 18.3955 5.99362 18.251 6.03736 18.1177L6.08056 18.0181L7.55056 15.3181H7.06456C5.16136 15.3181 3.61816 13.8349 3.61816 12.0037C3.61816 10.2397 5.04856 8.79849 6.85456 8.69409L7.13896 8.68809C7.38496 6.39249 9.06136 4.51929 12.0182 4.51929Z" fill="black"/>
</svg>
