<svg width="24" height="24" viewBox="0 0 24 24" fill="none" xmlns="http://www.w3.org/2000/svg">
  <path fill-rule="evenodd" clip-rule="evenodd" d="M12.2546 15.8261C10.0926 15.8261 8.33969 14.113 8.33969 12C8.33969 9.88704 10.0926 8.17391 12.2546 8.17391C14.4166 8.17391 16.1695 9.88704 16.1695 12C16.1695 14.113 14.4166 15.8261 12.2546 15.8261ZM23.4893 8.12083C23.5569 7.743 23.4619 7.36278 23.2231 7.05239L20.8326 3.93557C20.3383 3.2923 19.3723 3.14117 18.6902 3.59122L17.6439 4.26126C17.087 3.92648 16.4851 3.64096 15.8597 3.41474V2.19565C15.8597 2.05217 15.825 1.91061 15.7579 1.78148C15.4633 1.21139 15.1012 1 14.422 1H10.3015C9.7148 1 9.19852 1.33287 9.05465 1.43522C8.7992 1.616 8.64945 1.89722 8.64945 2.19565V3.42287C8.0402 3.65339 7.4559 3.94561 6.88482 4.30622L5.77201 3.57209C5.43435 3.35209 5.02965 3.26743 4.62494 3.33296C4.22171 3.39943 3.86937 3.60939 3.63105 3.92504L1.27673 7.05957C0.790306 7.7057 0.961582 8.60196 1.66137 9.05822L2.82703 9.81435C2.65967 10.4853 2.57501 11.1731 2.57501 11.8675C2.57501 12.6026 2.67386 13.3367 2.86814 14.058L1.8625 14.7232C1.52582 14.9456 1.30267 15.2766 1.23416 15.6549C1.16614 16.0327 1.26009 16.4124 1.49988 16.7247L3.88992 19.8406C4.12922 20.1529 4.48548 20.3595 4.89262 20.4236C5.29831 20.4848 5.70839 20.3997 6.05877 20.1682L7.0189 19.5111C7.56454 19.8492 8.0955 20.1123 8.64945 20.3184V21.4748C8.64945 22.2587 9.45201 23 10.3015 23H14.422C15.2416 23 15.8597 22.3443 15.8597 21.4748V20.3198C16.489 20.0922 17.0929 19.8052 17.6513 19.469L18.5546 20.0453C18.8938 20.2658 19.3068 20.35 19.7188 20.2835C20.1294 20.2165 20.4856 20.0066 20.7205 19.6943L23.0895 16.5578C23.5784 15.9093 23.4091 15.0135 22.7132 14.5606L21.8686 14.0106C22.0536 13.3061 22.1475 12.5878 22.1475 11.8675C22.1475 11.143 22.0526 10.4208 21.8652 9.71248L22.862 9.05343C23.1987 8.83056 23.4208 8.49961 23.4893 8.12083Z" fill="currentColor" stroke="currentColor"/>
</svg>
