<svg width="24" height="24" viewBox="0 0 24 24" fill="none" xmlns="http://www.w3.org/2000/svg">
  <path fill-rule="evenodd" clip-rule="evenodd" d="M23.2368 11.5917C23.6518 11.1974 23.6518 10.5359 23.2368 10.1417L16.3554 3.60431C15.7184 2.99918 14.6667 3.45071 14.6667 4.32931V7.06667C5.33333 8.33333 1.33333 14.6667 0 21C3.33333 16.5667 8 14.54 14.6667 14.54V17.404C14.6667 18.2826 15.7184 18.7342 16.3554 18.129L23.2368 11.5917Z" fill="currentColor"/>
  <mask id="mask0_1616_4881" style="mask-type:luminance" maskUnits="userSpaceOnUse" x="0" y="3" width="24" height="18">
    <path fill-rule="evenodd" clip-rule="evenodd" d="M23.2368 11.5917C23.6518 11.1974 23.6518 10.5359 23.2368 10.1417L16.3554 3.60431C15.7184 2.99918 14.6667 3.45071 14.6667 4.32931V7.06667C5.33333 8.33333 1.33333 14.6667 0 21C3.33333 16.5667 8 14.54 14.6667 14.54V17.404C14.6667 18.2826 15.7184 18.7342 16.3554 18.129L23.2368 11.5917Z" fill="white"/>
  </mask>
  <g mask="url(#mask0_1616_4881)">
  </g>
</svg>
