<svg width="24" height="24" viewBox="0 0 24 24" fill="none" xmlns="http://www.w3.org/2000/svg">
<path d="M12 2.92505C12.1989 2.92505 12.3897 3.00407 12.5303 3.14472C12.671 3.28537 12.75 3.47614 12.75 3.67505V5.17505C12.75 5.37396 12.671 5.56473 12.5303 5.70538C12.3897 5.84603 12.1989 5.92505 12 5.92505C11.8011 5.92505 11.6103 5.84603 11.4697 5.70538C11.329 5.56473 11.25 5.37396 11.25 5.17505V3.67505C11.25 3.47614 11.329 3.28537 11.4697 3.14472C11.6103 3.00407 11.8011 2.92505 12 2.92505ZM12 17.925C13.1935 17.925 14.3381 17.4509 15.182 16.607C16.0259 15.7631 16.5 14.6185 16.5 13.425C16.5 12.2316 16.0259 11.087 15.182 10.2431C14.3381 9.39915 13.1935 8.92505 12 8.92505C10.8065 8.92505 9.66193 9.39915 8.81802 10.2431C7.97411 11.087 7.5 12.2316 7.5 13.425C7.5 14.6185 7.97411 15.7631 8.81802 16.607C9.66193 17.4509 10.8065 17.925 12 17.925ZM12 16.425C11.2044 16.425 10.4413 16.109 9.87868 15.5464C9.31607 14.9838 9 14.2207 9 13.425C9 12.6294 9.31607 11.8663 9.87868 11.3037C10.4413 10.7411 11.2044 10.425 12 10.425C12.7956 10.425 13.5587 10.7411 14.1213 11.3037C14.6839 11.8663 15 12.6294 15 13.425C15 14.2207 14.6839 14.9838 14.1213 15.5464C13.5587 16.109 12.7956 16.425 12 16.425ZM21.75 14.175C21.9489 14.175 22.1397 14.096 22.2803 13.9554C22.421 13.8147 22.5 13.624 22.5 13.425C22.5 13.2261 22.421 13.0354 22.2803 12.8947C22.1397 12.7541 21.9489 12.675 21.75 12.675H20.25C20.0511 12.675 19.8603 12.7541 19.7197 12.8947C19.579 13.0354 19.5 13.2261 19.5 13.425C19.5 13.624 19.579 13.8147 19.7197 13.9554C19.8603 14.096 20.0511 14.175 20.25 14.175H21.75ZM12 20.925C12.1989 20.925 12.3897 21.0041 12.5303 21.1447C12.671 21.2854 12.75 21.4761 12.75 21.675V23.175C12.75 23.374 12.671 23.5647 12.5303 23.7054C12.3897 23.846 12.1989 23.925 12 23.925C11.8011 23.925 11.6103 23.846 11.4697 23.7054C11.329 23.5647 11.25 23.374 11.25 23.175V21.675C11.25 21.4761 11.329 21.2854 11.4697 21.1447C11.6103 21.0041 11.8011 20.925 12 20.925ZM3.75 14.175C3.94891 14.175 4.13968 14.096 4.28033 13.9554C4.42098 13.8147 4.5 13.624 4.5 13.425C4.5 13.2261 4.42098 13.0354 4.28033 12.8947C4.13968 12.7541 3.94891 12.675 3.75 12.675H2.25C2.05109 12.675 1.86032 12.7541 1.71967 12.8947C1.57902 13.0354 1.5 13.2261 1.5 13.425C1.5 13.624 1.57902 13.8147 1.71967 13.9554C1.86032 14.096 2.05109 14.175 2.25 14.175H3.75ZM4.719 6.14405C4.78867 6.0742 4.87143 6.01879 4.96255 5.98098C5.05367 5.94317 5.15135 5.92371 5.25 5.92371C5.34865 5.92371 5.44633 5.94317 5.53745 5.98098C5.62857 6.01879 5.71133 6.0742 5.781 6.14405L7.281 7.64405C7.35073 7.71378 7.40605 7.79656 7.44379 7.88767C7.48152 7.97878 7.50095 8.07643 7.50095 8.17505C7.50095 8.27366 7.48152 8.37132 7.44379 8.46242C7.40605 8.55353 7.35073 8.63632 7.281 8.70605C7.21127 8.77578 7.12848 8.8311 7.03738 8.86883C6.94627 8.90657 6.84862 8.926 6.75 8.926C6.65138 8.926 6.55373 8.90657 6.46262 8.86883C6.37152 8.8311 6.28873 8.77578 6.219 8.70605L4.719 7.20605C4.64915 7.13638 4.59374 7.05362 4.55593 6.9625C4.51812 6.87138 4.49866 6.7737 4.49866 6.67505C4.49866 6.5764 4.51812 6.47872 4.55593 6.3876C4.59374 6.29648 4.64915 6.21372 4.719 6.14405ZM5.781 20.706C5.71137 20.7758 5.62868 20.8311 5.53766 20.8689C5.44664 20.9067 5.34908 20.9261 5.25053 20.9262C5.15198 20.9263 5.05439 20.9069 4.96332 20.8693C4.87225 20.8316 4.78948 20.7764 4.71975 20.7068C4.65002 20.6372 4.59468 20.5545 4.55691 20.4635C4.51913 20.3724 4.49965 20.2749 4.49958 20.1763C4.49951 20.0778 4.51885 19.9802 4.5565 19.8891C4.59415 19.798 4.64937 19.7153 4.719 19.6455L6.219 18.1455C6.28863 18.0758 6.37132 18.0205 6.46234 17.9827C6.55336 17.9449 6.65092 17.9255 6.74947 17.9254C6.84802 17.9253 6.94561 17.9447 7.03668 17.9823C7.12775 18.0199 7.21052 18.0752 7.28025 18.1448C7.34998 18.2144 7.40532 18.2971 7.44309 18.3881C7.48087 18.4792 7.50035 18.5767 7.50042 18.6753C7.50049 18.7738 7.48115 18.8714 7.4435 18.9625C7.40585 19.0536 7.35063 19.1363 7.281 19.206L5.781 20.706ZM19.281 6.14405C19.2113 6.0742 19.1286 6.01879 19.0374 5.98098C18.9463 5.94317 18.8487 5.92371 18.75 5.92371C18.6513 5.92371 18.5537 5.94317 18.4626 5.98098C18.3714 6.01879 18.2887 6.0742 18.219 6.14405L16.719 7.64405C16.5782 7.78488 16.4991 7.97589 16.4991 8.17505C16.4991 8.37421 16.5782 8.56522 16.719 8.70605C16.8598 8.84688 17.0508 8.926 17.25 8.926C17.4492 8.926 17.6402 8.84688 17.781 8.70605L19.281 7.20605C19.3508 7.13638 19.4063 7.05362 19.4441 6.9625C19.4819 6.87138 19.5013 6.7737 19.5013 6.67505C19.5013 6.5764 19.4819 6.47872 19.4441 6.3876C19.4063 6.29648 19.3508 6.21372 19.281 6.14405ZM18.219 20.706C18.3596 20.8469 18.5504 20.9261 18.7495 20.9262C18.9485 20.9264 19.1394 20.8474 19.2803 20.7068C19.4211 20.5662 19.5003 20.3754 19.5004 20.1763C19.5006 19.9773 19.4216 19.7864 19.281 19.6455L17.781 18.1455C17.6404 18.0047 17.4496 17.9255 17.2505 17.9254C17.0515 17.9252 16.8606 18.0042 16.7197 18.1448C16.5789 18.2854 16.4997 18.4762 16.4996 18.6753C16.4994 18.8743 16.5784 19.0652 16.719 19.206L18.219 20.706Z" fill="black"/>
</svg>
