<svg width="24" height="24" viewBox="0 0 24 24" fill="none" xmlns="http://www.w3.org/2000/svg">
<path d="M10.4796 15.7627L12.9837 13.2721C13.1252 13.1301 13.3216 13.0414 13.5333 13.0239C13.745 13.0063 13.9563 13.0611 14.1245 13.1774C14.2928 13.2936 14.4055 13.4625 14.4398 13.6501C14.4742 13.8377 14.4277 14.0299 14.3097 14.1881L14.2336 14.2761L12.9893 15.5135H15.5382C15.6867 15.5133 15.8326 15.5484 15.961 15.6151C16.0894 15.6818 16.1958 15.7777 16.2692 15.8931C16.3426 16.0085 16.3805 16.1392 16.379 16.2719C16.3775 16.4047 16.3366 16.5347 16.2606 16.6487L16.1956 16.7328L12.5985 20.7681C12.4666 20.9168 12.2765 21.0153 12.0666 21.0438C11.8567 21.0723 11.6426 21.0287 11.4672 20.9218C11.2918 20.8148 11.1682 20.6525 11.1213 20.4674C11.0744 20.2824 11.1076 20.0883 11.2143 19.9242L11.2848 19.8331L13.7957 17.0151H11.1045C10.9522 17.0151 10.8028 16.9782 10.6722 16.9082C10.5416 16.8382 10.4348 16.7377 10.3631 16.6176C10.2914 16.4975 10.2577 16.3623 10.2654 16.2263C10.2731 16.0904 10.322 15.9588 10.4068 15.8458L10.4796 15.7627ZM13.3219 5.01122C16.8698 5.01122 18.8834 7.11147 19.1757 9.64719H19.2653C19.8076 9.64653 20.3448 9.74138 20.8461 9.92633C21.3474 10.1113 21.8031 10.3827 22.1871 10.7251C22.571 11.0674 22.8758 11.4741 23.0839 11.9217C23.292 12.3694 23.3994 12.8493 23.4 13.3341C23.3993 13.8188 23.2917 14.2987 23.0836 14.7462C22.8754 15.1938 22.5706 15.6003 22.1867 15.9426C21.8027 16.2848 21.3471 16.5562 20.8459 16.741C20.3446 16.9259 19.8075 17.0207 19.2653 17.0201L17.2629 17.0211C17.4316 16.7996 17.5216 16.5379 17.5212 16.27C17.5208 16.0021 17.43 15.7405 17.2607 15.5195L19.2026 15.5215C20.6148 15.5215 21.7593 14.5184 21.7593 13.2821C21.7593 12.0458 20.6148 11.0437 19.2026 11.0437H18.4299C18.02 11.0437 17.6627 10.7634 17.6627 10.405C17.6627 8.11755 15.6413 6.51083 13.3219 6.51083C11.0015 6.51083 8.98006 8.14658 8.98006 10.405C8.98006 10.7624 8.62281 11.0437 8.21404 11.0437H7.44131C6.02798 11.0437 4.88344 12.0448 4.88344 13.2821C4.88344 14.5184 6.02798 15.5215 7.44019 15.5215L9.41347 15.5205C9.24413 15.7415 9.15333 16.0031 9.15293 16.271C9.15253 16.5389 9.24255 16.8006 9.41123 17.0221L7.37747 17.0201C6.83523 17.0207 6.29815 16.9259 5.79691 16.741C5.29566 16.5562 4.84006 16.2848 4.45611 15.9426C4.07217 15.6003 3.76741 15.1938 3.55922 14.7462C3.35103 14.2987 3.2435 13.8188 3.24277 13.3341C3.24336 12.8493 3.35078 12.3694 3.5589 11.9217C3.76702 11.4741 4.07176 11.0674 4.45572 10.7251C4.83968 10.3827 5.29533 10.1113 5.79665 9.92633C6.29797 9.74138 6.83514 9.64653 7.37747 9.64719H7.46706C7.7616 7.09446 9.77408 5.01122 13.3219 5.01122ZM9.95998 2C11.7709 2 13.3757 2.81587 14.3276 4.06421C13.9938 4.02968 13.658 4.01196 13.3219 4.01115C12.8792 4.01115 12.454 4.03952 12.0464 4.09624C11.5507 3.78222 10.9744 3.58523 10.3708 3.52354C9.76718 3.46185 9.15594 3.53748 8.59378 3.74339C8.03163 3.9493 7.53679 4.27883 7.15519 4.70139C6.77359 5.12394 6.5176 5.62583 6.41099 6.16046L6.32924 6.5749C6.28366 6.80683 6.14808 7.01698 5.94633 7.16839C5.74457 7.31981 5.48956 7.4028 5.22613 7.40279H4.67737C4.28276 7.40241 3.89689 7.50662 3.56852 7.70224C3.24015 7.89786 2.98403 8.1761 2.83253 8.50181C2.68103 8.82751 2.64095 9.18605 2.71736 9.53211C2.79377 9.87817 2.98323 10.1962 3.26181 10.446C2.90904 10.8465 2.62906 11.302 2.43867 11.7945C1.8433 11.3863 1.40193 10.825 1.17388 10.186C0.945829 9.54707 0.942015 8.86101 1.16295 8.22003C1.38388 7.57906 1.81898 7.01388 2.40979 6.60043C3.0006 6.18698 3.71882 5.94507 4.46795 5.90718L4.75577 5.90118C4.97232 4.80802 5.61256 3.81793 6.56418 3.10457C7.5158 2.39122 8.71803 2.00016 9.95998 2Z" fill="black"/>
</svg>
