<svg width="85" height="33" viewBox="0 0 85 33" fill="none" xmlns="http://www.w3.org/2000/svg">
<rect width="84.5122" height="33" rx="16.5" fill="#8D939D"/>
<ellipse cx="16.2317" cy="16.5" rx="14.3537" ry="14.3537" fill="white"/>
<path d="M53.5311 22.9905C50.5761 22.9905 48.5661 20.8005 48.5661 17.1855C48.5661 13.5705 50.5761 11.4855 53.5311 11.4855C56.4711 11.4855 58.4811 13.5855 58.4811 17.1855C58.4811 20.8005 56.4711 22.9905 53.5311 22.9905ZM53.5311 21.0705C55.1811 21.0705 56.2311 19.5555 56.2311 17.1855C56.2311 14.8155 55.1811 13.3905 53.5311 13.3905C51.8661 13.3905 50.8311 14.8155 50.8311 17.1855C50.8311 19.5555 51.8661 21.0705 53.5311 21.0705ZM59.4641 22.7805V11.6805H66.3041V13.5255H61.6841V16.4355H65.6291V18.2805H61.6841V22.7805H59.4641ZM67.0385 22.7805V11.6805H73.8785V13.5255H69.2585V16.4355H73.2035V18.2805H69.2585V22.7805H67.0385Z" fill="white"/>
</svg>
