<svg width="85" height="33" viewBox="0 0 85 33" fill="none" xmlns="http://www.w3.org/2000/svg">
<path d="M0 16.5C0 7.3873 7.3873 0 16.5 0H68.0122C77.1249 0 84.5122 7.3873 84.5122 16.5C84.5122 25.6127 77.1249 33 68.0122 33H16.5C7.3873 33 0 25.6127 0 16.5Z" fill="#FF9078"/>
<path d="M81.561 16.5C81.561 24.4273 75.1346 30.8537 67.2073 30.8537C59.28 30.8537 52.8536 24.4273 52.8536 16.5C52.8536 8.57271 59.28 2.14636 67.2073 2.14636C75.1346 2.14636 81.561 8.57271 81.561 16.5Z" fill="white"/>
<path d="M11.9457 22.9905C8.99072 22.9905 6.98072 20.8005 6.98072 17.1855C6.98072 13.5705 8.99072 11.4855 11.9457 11.4855C14.8857 11.4855 16.8957 13.5855 16.8957 17.1855C16.8957 20.8005 14.8857 22.9905 11.9457 22.9905ZM11.9457 21.0705C13.5957 21.0705 14.6457 19.5555 14.6457 17.1855C14.6457 14.8155 13.5957 13.3905 11.9457 13.3905C10.2807 13.3905 9.24572 14.8155 9.24572 17.1855C9.24572 19.5555 10.2807 21.0705 11.9457 21.0705ZM17.8787 22.7805V11.6805H20.1287L23.3537 17.6055L24.4787 20.0055H24.5537C24.4337 18.8505 24.2537 17.3655 24.2537 16.1055V11.6805H26.3687V22.7805H24.1037L20.8937 16.8405L19.7687 14.4705H19.6937C19.7987 15.6555 19.9787 17.0505 19.9787 18.3405V22.7805H17.8787Z" fill="white"/>
</svg>
