<svg width="24" height="24" viewBox="0 0 24 24" fill="none" xmlns="http://www.w3.org/2000/svg">
<path d="M3.42497 2.57519C3.36919 2.5194 3.30296 2.47515 3.23007 2.44496C3.15718 2.41477 3.07906 2.39923 3.00017 2.39923C2.92128 2.39923 2.84316 2.41477 2.77027 2.44496C2.69738 2.47515 2.63116 2.5194 2.57537 2.57519C2.51959 2.63097 2.47533 2.6972 2.44514 2.77009C2.41495 2.84298 2.39941 2.9211 2.39941 2.99999C2.39941 3.07888 2.41495 3.157 2.44514 3.22989C2.47533 3.30278 2.51959 3.369 2.57537 3.42479L4.35137 5.19959C3.7636 5.50242 3.27058 5.96127 2.92639 6.52581C2.5822 7.09036 2.40014 7.73879 2.40017 8.39999V15.6C2.40017 16.5548 2.77946 17.4704 3.45459 18.1456C4.12972 18.8207 5.04539 19.2 6.00017 19.2H12.0002C12.8219 19.2002 13.619 18.9193 14.2591 18.4039C14.8991 17.8885 15.3435 17.1697 15.5186 16.3668L20.5754 21.4248C20.688 21.5375 20.8408 21.6007 21.0002 21.6007C21.1595 21.6007 21.3123 21.5375 21.425 21.4248C21.5376 21.3121 21.6009 21.1593 21.6009 21C21.6009 20.8407 21.5376 20.6879 21.425 20.5752L3.42497 2.57519ZM16.8002 14.256L20.4914 17.946C21.1022 17.778 21.5978 17.2284 21.5978 16.4976V7.50239C21.5976 7.22892 21.5227 6.96071 21.3811 6.72674C21.2395 6.49278 21.0367 6.30198 20.7945 6.17496C20.5523 6.04794 20.28 5.98954 20.0071 6.00608C19.7341 6.02262 19.4708 6.11346 19.2458 6.26879L16.8002 7.95599V14.256ZM7.34537 4.79999L15.6002 13.0548V8.39999C15.6002 7.44521 15.2209 6.52954 14.5458 5.8544C13.8706 5.17927 12.955 4.79999 12.0002 4.79999H7.34537Z"  fill="currentColor"/>
</svg>
