<svg width="24" height="24" viewBox="0 0 24 24" fill="none" xmlns="http://www.w3.org/2000/svg">
  <path d="M17.687 8.97445L17.6871 8.9744L20.087 7.77446C20.1937 7.72114 20.3122 7.69597 20.4314 7.70134C20.5506 7.7067 20.6664 7.74243 20.7678 7.80512C20.8693 7.86781 20.9531 7.95539 21.0112 8.05955C21.0693 8.1637 21.0998 8.28098 21.0999 8.40025V15.5997C21.0998 15.719 21.0693 15.8363 21.0112 15.9404C20.9531 16.0446 20.8693 16.1322 20.7678 16.1949C20.6664 16.2575 20.5506 16.2933 20.4314 16.2986C20.3122 16.304 20.1937 16.2788 20.087 16.2255L17.6871 15.0256L17.687 15.0255C17.5707 14.9674 17.473 14.8781 17.4046 14.7676C17.3362 14.6571 17.3 14.5297 17.2999 14.3997V9.60026C17.3 9.47029 17.3362 9.34291 17.4046 9.23239C17.473 9.12186 17.5707 9.03255 17.687 8.97445ZM2.8999 7.19999C2.8999 6.69608 3.10008 6.2128 3.4564 5.85648C3.81272 5.50017 4.29599 5.29999 4.7999 5.29999H11.9999C12.5038 5.29999 12.9871 5.50017 13.3434 5.85648C13.6997 6.2128 13.8999 6.69608 13.8999 7.19999V16.8C13.8999 17.3039 13.6997 17.7872 13.3434 18.1435C12.9871 18.4998 12.5038 18.7 11.9999 18.7H4.7999C4.29599 18.7 3.81272 18.4998 3.4564 18.1435C3.10008 17.7872 2.8999 17.3039 2.8999 16.8V7.19999Z" fill="currentColor" stroke="currentColor"/>
</svg>
