<svg width="24" height="24" viewBox="0 0 24 24" fill="none" xmlns="http://www.w3.org/2000/svg">
<path d="M7.2875 6.90463C7.49317 5.8845 8.07045 4.97714 8.90732 4.35859C9.7442 3.74005 10.781 3.45442 11.8166 3.55712C12.8522 3.65983 13.8127 4.14355 14.5117 4.91442C15.2108 5.6853 15.5986 6.68837 15.5999 7.72903C15.6001 8.28068 15.4915 8.82696 15.2805 9.33667C15.0695 9.84637 14.7602 10.3095 14.3702 10.6997C13.9802 11.0898 13.5171 11.3993 13.0075 11.6104C12.4978 11.8216 11.9516 11.9302 11.3999 11.9302H3.2999C3.06121 11.9302 2.83229 11.8354 2.66351 11.6666C2.49472 11.4978 2.3999 11.2689 2.3999 11.0302C2.3999 10.7915 2.49472 10.5626 2.66351 10.3938C2.83229 10.225 3.06121 10.1302 3.2999 10.1302H11.3999C12.0233 10.1108 12.6147 9.84963 13.0489 9.40191C13.4831 8.95419 13.7261 8.35509 13.7264 7.73139C13.7267 7.10769 13.4843 6.50835 13.0506 6.0602C12.6168 5.61204 12.0257 5.35025 11.4023 5.33023C10.2599 5.33023 9.2759 6.13663 9.0527 7.25743L8.9819 7.60663C8.9283 7.83372 8.78859 8.03112 8.59225 8.15719C8.3959 8.28326 8.15827 8.32814 7.92947 8.28238C7.70067 8.23662 7.49858 8.10379 7.36583 7.9119C7.23308 7.72001 7.18004 7.48407 7.2179 7.25383L7.2875 6.90463ZM16.0319 11.155C16.3285 10.5636 16.816 10.0895 17.4154 9.80945C18.0148 9.52938 18.6912 9.45969 19.3352 9.61166C19.9791 9.76362 20.553 10.1284 20.964 10.6469C21.3749 11.1654 21.599 11.8074 21.5999 12.469V12.5302C21.5999 13.3259 21.2838 14.0889 20.7212 14.6515C20.1586 15.2142 19.3956 15.5302 18.5999 15.5302H17.5007C17.6712 15.9629 17.7334 16.4307 17.6819 16.8929C17.6303 17.3551 17.4666 17.7978 17.2049 18.1822C16.9432 18.5667 16.5916 18.8814 16.1805 19.0989C15.7694 19.3164 15.3114 19.4302 14.8463 19.4302C14.3766 19.4307 13.914 19.3153 13.4996 19.0942C13.0851 18.8732 12.7316 18.5533 12.4703 18.163L12.4523 18.1342C12.3824 18.0362 12.3329 17.9251 12.3068 17.8076C12.2806 17.69 12.2783 17.5684 12.2999 17.45C12.3216 17.3316 12.3668 17.2187 12.4329 17.118C12.499 17.0174 12.5846 16.931 12.6846 16.864C12.7847 16.797 12.8972 16.7508 13.0154 16.7281C13.1337 16.7054 13.2553 16.7066 13.373 16.7317C13.4908 16.7569 13.6023 16.8054 13.701 16.8744C13.7997 16.9434 13.8835 17.0314 13.9475 17.1334L13.9667 17.1622C14.1623 17.4538 14.4935 17.6302 14.8463 17.6302C14.9842 17.6305 15.1208 17.6035 15.2483 17.551C15.3757 17.4984 15.4916 17.4213 15.5893 17.324C15.687 17.2266 15.7645 17.111 15.8175 16.9837C15.8705 16.8564 15.8979 16.7199 15.8981 16.582C15.8983 16.4441 15.8714 16.3076 15.8189 16.1801C15.7663 16.0526 15.6892 15.9367 15.5918 15.839C15.4945 15.7414 15.3789 15.6638 15.2516 15.6108C15.1243 15.5579 14.9878 15.5305 14.8499 15.5302H3.2999C3.06121 15.5302 2.83229 15.4354 2.66351 15.2666C2.49472 15.0978 2.3999 14.8689 2.3999 14.6302C2.3999 14.3915 2.49472 14.1626 2.66351 13.9938C2.83229 13.825 3.06121 13.7302 3.2999 13.7302H18.5999C18.9182 13.7302 19.2234 13.6038 19.4484 13.3788C19.6735 13.1537 19.7999 12.8485 19.7999 12.5302V12.4702C19.7996 12.2137 19.7127 11.9648 19.5534 11.7638C19.3941 11.5627 19.1716 11.4213 18.922 11.3623C18.6724 11.3033 18.4101 11.3302 18.1777 11.4388C17.9452 11.5473 17.7562 11.731 17.6411 11.9602L17.6051 12.0322C17.5529 12.1389 17.48 12.2342 17.3908 12.3126C17.3016 12.391 17.1977 12.451 17.0852 12.489C16.9727 12.5271 16.8538 12.5425 16.7353 12.5344C16.6168 12.5263 16.501 12.4948 16.3948 12.4417C16.2885 12.3887 16.1938 12.3151 16.1161 12.2253C16.0384 12.1354 15.9792 12.0311 15.942 11.9183C15.9048 11.8055 15.8903 11.6864 15.8994 11.568C15.9084 11.4496 15.9408 11.3341 15.9947 11.2282L16.0319 11.155Z" fill="black"/>
</svg>
