<svg width="312" height="112" viewBox="0 0 312 112" fill="none" xmlns="http://www.w3.org/2000/svg">
<g filter="url(#filter0_d_1827_30523)">
<rect x="24" y="24" width="264" height="64" rx="12" fill="#FAE300"/>
<path d="M72.0606 50.532H74.1406C74.1406 55.108 73.0526 58.916 67.5326 61.716L66.3966 60.1C71.0046 57.78 72.0606 54.948 72.0606 50.788V50.532ZM67.3086 50.532H73.3246V52.212H67.3086V50.532ZM72.1086 54.164V55.796L66.7966 56.308L66.5406 54.484L72.1086 54.164ZM75.9326 49.092H78.0766V63.908H75.9326V49.092ZM77.5166 54.756H80.1246V56.5H77.5166V54.756ZM85.4994 50.532H87.5794C87.5794 55.108 86.4914 58.916 80.9714 61.716L79.8354 60.1C84.4434 57.78 85.4994 54.948 85.4994 50.788V50.532ZM80.7474 50.532H86.7634V52.212H80.7474V50.532ZM85.5474 54.164V55.796L80.2354 56.308L79.9794 54.484L85.5474 54.164ZM89.3714 49.092H91.5154V63.908H89.3714V49.092ZM90.9554 54.756H93.5634V56.5H90.9554V54.756ZM98.9701 57.444H101.098V60.82H98.9701V57.444ZM100.042 49.86C103.21 49.86 105.578 51.476 105.578 53.94C105.578 56.436 103.21 58.036 100.042 58.036C96.8741 58.036 94.5061 56.436 94.5061 53.94C94.5061 51.476 96.8741 49.86 100.042 49.86ZM100.042 51.54C98.0101 51.54 96.6021 52.436 96.6021 53.94C96.6021 55.476 98.0101 56.356 100.042 56.356C102.074 56.356 103.482 55.476 103.482 53.94C103.482 52.436 102.074 51.54 100.042 51.54ZM93.3541 60.484H106.762V62.212H93.3541V60.484ZM106.793 60.564H120.201V62.292H106.793V60.564ZM112.409 57.764H114.537V61.268H112.409V57.764ZM108.297 50.068H118.697V54.996H110.441V57.492H108.329V53.332H116.585V51.748H108.297V50.068ZM108.329 56.644H119.033V58.356H108.329V56.644ZM132.033 49.092H134.177V63.908H132.033V49.092ZM133.617 54.756H136.225V56.5H133.617V54.756ZM128.145 50.628H130.225C130.225 55.076 128.529 58.884 123.601 61.364L122.417 59.748C126.305 57.732 128.145 55.012 128.145 50.996V50.628ZM123.233 50.628H129.233V52.34H123.233V50.628ZM146.175 49.108H148.319V57.076H146.175V49.108ZM138.463 57.716H140.559V59.092H146.207V57.716H148.319V63.764H138.463V57.716ZM140.559 60.724V62.068H146.207V60.724H140.559ZM140.255 49.716C142.559 49.716 144.271 51.172 144.271 53.22C144.271 55.268 142.559 56.724 140.255 56.724C137.951 56.724 136.223 55.268 136.223 53.22C136.223 51.172 137.951 49.716 140.255 49.716ZM140.255 51.476C139.119 51.476 138.303 52.132 138.303 53.22C138.303 54.324 139.119 54.964 140.255 54.964C141.375 54.964 142.191 54.324 142.191 53.22C142.191 52.132 141.375 51.476 140.255 51.476ZM149.006 65.412L153.006 49.604H154.558L150.574 65.412H149.006ZM154.362 60.564H167.77V62.292H154.362V60.564ZM159.978 57.764H162.106V61.268H159.978V57.764ZM155.866 50.068H166.266V54.996H158.01V57.492H155.898V53.332H164.154V51.748H155.866V50.068ZM155.898 56.644H166.602V58.356H155.898V56.644ZM169.16 50.468H178.552V52.148H169.16V50.468ZM167.8 60.26H181.192V61.988H167.8V60.26ZM177.432 50.468H179.544V52.228C179.544 54.308 179.544 56.324 179.016 59.364L176.888 59.188C177.432 56.34 177.432 54.228 177.432 52.228V50.468ZM191.399 49.124H193.543V59.764H191.399V49.124ZM183.671 61.972H193.911V63.668H183.671V61.972ZM183.671 58.692H185.799V62.66H183.671V58.692ZM185.479 50.052C187.751 50.052 189.495 51.62 189.495 53.812C189.495 55.988 187.751 57.572 185.479 57.572C183.207 57.572 181.447 55.988 181.447 53.812C181.447 51.62 183.207 50.052 185.479 50.052ZM185.479 51.892C184.375 51.892 183.527 52.596 183.527 53.812C183.527 55.012 184.375 55.716 185.479 55.716C186.567 55.716 187.415 55.012 187.415 53.812C187.415 52.596 186.567 51.892 185.479 51.892ZM204.166 49.108H206.278V63.924H204.166V49.108ZM205.798 54.884H208.422V56.66H205.798V54.884ZM194.598 51.3H203.222V52.996H194.598V51.3ZM198.934 53.828C201.094 53.828 202.694 55.3 202.694 57.364C202.694 59.428 201.094 60.9 198.934 60.9C196.774 60.9 195.174 59.428 195.174 57.364C195.174 55.3 196.774 53.828 198.934 53.828ZM198.934 55.556C197.926 55.556 197.206 56.228 197.206 57.364C197.206 58.5 197.926 59.172 198.934 59.172C199.942 59.172 200.662 58.5 200.662 57.364C200.662 56.228 199.942 55.556 198.934 55.556ZM197.862 49.348H199.99V51.94H197.862V49.348ZM218.309 49.108H220.453V63.924H218.309V49.108ZM213.941 50.644H216.053C216.053 55.172 214.517 58.884 209.253 61.428L208.149 59.732C212.405 57.684 213.941 54.996 213.941 51.028V50.644ZM208.933 50.644H214.949V52.324H208.933V50.644Z" fill="#1F2329"/>
<path d="M251.997 44C245.371 44 240 48.2365 240 53.4654C240 56.8707 242.275 59.848 245.694 61.5166C245.445 62.4532 244.786 64.9033 244.656 65.4305C244.494 66.0818 244.898 66.0756 245.159 65.8957C245.364 65.7592 248.448 63.6689 249.778 62.7633C250.499 62.8688 251.245 62.9246 252.003 62.9246C258.629 62.9246 264 58.6881 264 53.4592C264 48.2365 258.623 44 251.997 44Z" fill="#391B1B"/>
<path d="M247.173 50.6797H243.661C243.332 50.6797 243.064 50.9464 243.064 51.2752C243.064 51.6039 243.332 51.8706 243.661 51.8706H244.805V56.0637C244.805 56.2187 244.867 56.3676 244.979 56.4731C245.085 56.5785 245.234 56.6405 245.389 56.6405H245.52C245.675 56.6405 245.824 56.5785 245.93 56.4731C246.042 56.3614 246.104 56.2125 246.104 56.0637V51.8706H247.179C247.509 51.8706 247.776 51.6039 247.776 51.2752C247.77 50.9464 247.503 50.6797 247.173 50.6797Z" fill="#FAE300"/>
<path d="M255.601 55.5249H253.973V51.2388C253.973 50.8791 253.68 50.5938 253.326 50.5938C252.966 50.5938 252.68 50.8853 252.68 51.2388V55.8537C252.68 55.8909 252.686 55.9219 252.692 55.9591C252.686 55.9901 252.68 56.0274 252.68 56.0646C252.68 56.3623 252.922 56.6042 253.22 56.6042H255.601C255.9 56.6042 256.142 56.3623 256.142 56.0646C256.142 55.7668 255.9 55.5249 255.601 55.5249Z" fill="#FAE300"/>
<path d="M260.818 55.7231L258.997 53.3412L260.638 51.7037C260.861 51.4804 260.861 51.1206 260.638 50.8973C260.414 50.674 260.053 50.674 259.829 50.8973L257.797 52.9256V51.2447C257.797 50.8849 257.505 50.5996 257.15 50.5996C256.79 50.5996 256.504 50.8911 256.504 51.2447V56.0022C256.504 56.362 256.796 56.6473 257.15 56.6473C257.511 56.6473 257.797 56.3558 257.797 56.0022V54.5321L258.164 54.1662L259.885 56.4178C260.078 56.6721 260.439 56.7279 260.693 56.5356C260.961 56.3371 261.011 55.9774 260.818 55.7231Z" fill="#FAE300"/>
<path d="M252.189 55.8785L250.442 51.1024L250.436 51.0962C250.324 50.8046 250.001 50.5938 249.615 50.5938C249.187 50.5938 248.838 50.8543 248.764 51.1954C248.751 51.2202 248.739 51.245 248.733 51.2761L247.011 55.8785C246.905 56.1824 247.067 56.5112 247.365 56.6166C247.67 56.7221 247.999 56.5608 248.105 56.2631L248.403 55.4133H250.796L251.095 56.2631C251.201 56.567 251.53 56.7221 251.835 56.6166C252.139 56.505 252.295 56.1762 252.189 55.8785ZM248.789 54.3278L249.591 52.039C249.597 52.039 249.609 52.039 249.615 52.039L250.417 54.3278H248.789Z" fill="#FAE300"/>
</g>
<defs>
<filter id="filter0_d_1827_30523" x="0" y="0" width="312" height="112" filterUnits="userSpaceOnUse" color-interpolation-filters="sRGB">
<feFlood flood-opacity="0" result="BackgroundImageFix"/>
<feColorMatrix in="SourceAlpha" type="matrix" values="0 0 0 0 0 0 0 0 0 0 0 0 0 0 0 0 0 0 127 0" result="hardAlpha"/>
<feOffset/>
<feGaussianBlur stdDeviation="12"/>
<feComposite in2="hardAlpha" operator="out"/>
<feColorMatrix type="matrix" values="0 0 0 0 1 0 0 0 0 0.564706 0 0 0 0 0.470588 0 0 0 0.3 0"/>
<feBlend mode="normal" in2="BackgroundImageFix" result="effect1_dropShadow_1827_30523"/>
<feBlend mode="normal" in="SourceGraphic" in2="effect1_dropShadow_1827_30523" result="shape"/>
</filter>
</defs>
</svg>
