<svg width="24" height="24" viewBox="0 0 24 24" fill="none" xmlns="http://www.w3.org/2000/svg">
<path d="M11.9969 0C5.37063 0 0 4.23648 0 9.46539C0 12.8707 2.27506 15.848 5.69386 17.5166C5.44522 18.4532 4.78632 20.9033 4.65579 21.4305C4.49417 22.0818 4.89821 22.0756 5.15929 21.8957C5.36441 21.7592 8.44755 19.6689 9.77778 18.7633C10.4988 18.8688 11.2448 18.9246 12.0031 18.9246C18.6294 18.9246 24 14.6881 24 9.45919C24 4.23648 18.6232 0 11.9969 0Z" fill="#391B1B"/>
<path d="M7.17323 6.67964H3.66119C3.33174 6.67964 3.06445 6.94636 3.06445 7.27511C3.06445 7.60385 3.33174 7.87057 3.66119 7.87057H4.80493V12.0636C4.80493 12.2187 4.86709 12.3676 4.97898 12.473C5.08466 12.5785 5.23384 12.6405 5.38924 12.6405H5.51978C5.67518 12.6405 5.82436 12.5785 5.93003 12.473C6.04192 12.3614 6.10408 12.2125 6.10408 12.0636V7.87057H7.17945C7.5089 7.87057 7.77619 7.60385 7.77619 7.27511C7.76997 6.94636 7.50268 6.67964 7.17323 6.67964Z" fill="#FAE300"/>
<path d="M15.6022 11.5247H13.9736V7.23864C13.9736 6.87888 13.6814 6.59355 13.3271 6.59355C12.9666 6.59355 12.6807 6.88508 12.6807 7.23864V11.8535C12.6807 11.8907 12.6869 11.9217 12.6931 11.9589C12.6869 11.9899 12.6807 12.0272 12.6807 12.0644C12.6807 12.3621 12.9231 12.604 13.2215 12.604H15.6022C15.9006 12.604 16.143 12.3621 16.143 12.0644C16.143 11.7666 15.9006 11.5247 15.6022 11.5247Z" fill="#FAE300"/>
<path d="M20.8173 11.7232L18.996 9.3413L20.6371 7.70377C20.8608 7.48048 20.8608 7.12072 20.6371 6.89742C20.4133 6.67412 20.0528 6.67412 19.829 6.89742L17.7963 8.92571V7.24477C17.7963 6.88501 17.5042 6.59969 17.1499 6.59969C16.7894 6.59969 16.5034 6.89121 16.5034 7.24477V12.0023C16.5034 12.362 16.7956 12.6474 17.1499 12.6474C17.5104 12.6474 17.7963 12.3558 17.7963 12.0023V10.5322L18.1631 10.1663L19.8849 12.4179C20.0776 12.6722 20.4381 12.728 20.693 12.5357C20.9603 12.3372 21.01 11.9775 20.8173 11.7232Z" fill="#FAE300"/>
<path d="M12.1898 11.8783L10.4431 7.10218L10.4369 7.09597C10.325 6.80444 10.0018 6.59355 9.61642 6.59355C9.18752 6.59355 8.83942 6.85407 8.76483 7.19522C8.7524 7.22003 8.73996 7.24484 8.73375 7.27585L7.01191 11.8783C6.90624 12.1822 7.06786 12.511 7.36623 12.6164C7.67081 12.7219 8.00026 12.5606 8.10593 12.2629L8.4043 11.4131H10.7975L11.0958 12.2629C11.2015 12.5668 11.5309 12.7219 11.8355 12.6164C12.1401 12.5048 12.2955 12.176 12.1898 11.8783ZM8.78969 10.3276L9.59156 8.03879C9.59777 8.03879 9.6102 8.03879 9.61642 8.03879L10.4183 10.3276H8.78969Z" fill="#FAE300"/>
</svg>
