<svg width="160" height="80" viewBox="0 0 160 80" fill="none" xmlns="http://www.w3.org/2000/svg">
<path d="M16.851 53.6167C19.379 53.6167 21.8034 52.6125 23.5909 50.8249C25.3785 49.0374 26.3827 46.6129 26.3827 44.085V35.9149C26.3827 33.3869 27.3869 30.9625 29.1745 29.175C30.962 27.3874 33.3865 26.3832 35.9144 26.3832C38.4424 26.3832 40.8668 25.379 42.6544 23.5914C44.4419 21.8039 45.4462 19.3794 45.4462 16.8515V5.01279C43.6708 4.73866 41.8518 4.59644 39.9997 4.59644C20.4469 4.59644 4.59619 20.4472 4.59619 40C4.59619 44.8252 5.5615 49.425 7.30956 53.6167H16.851Z" fill="#1611ED"/>
<path d="M61.8012 67.8973C70.0818 61.4173 75.4035 51.3301 75.4035 40.0002C75.4035 39.8178 75.4024 39.6356 75.3995 39.4538C72.6732 38.0399 69.6498 37.2938 66.5789 37.2769H54.9775C52.4496 37.2769 50.0251 38.2811 48.2376 40.0687C46.45 41.8562 45.4458 44.2806 45.4458 46.8086C45.4458 49.3366 46.45 51.761 48.2376 53.5486C50.0251 55.3361 52.4496 56.3403 54.9775 56.3403C56.7832 56.3403 58.5149 57.0577 59.7915 58.3344C61.0687 59.6115 61.7858 61.343 61.7858 63.1487V67.8875L61.8012 67.8973Z" fill="#1611ED"/>
<path d="M16.851 53.6167C19.379 53.6167 21.8034 52.6125 23.5909 50.8249C25.3785 49.0374 26.3827 46.6129 26.3827 44.085V35.9149C26.3827 33.3869 27.3869 30.9625 29.1745 29.175C30.962 27.3874 33.3865 26.3832 35.9144 26.3832C38.4424 26.3832 40.8668 25.379 42.6544 23.5914C44.4419 21.8039 45.4462 19.3794 45.4462 16.8515V5.01279C43.6708 4.73866 41.8518 4.59644 39.9997 4.59644C20.4469 4.59644 4.59619 20.4472 4.59619 40C4.59619 44.8252 5.5615 49.425 7.30956 53.6167H16.851Z" stroke="black" stroke-width="3" stroke-linecap="round" stroke-linejoin="round"/>
<path d="M39.9998 75.4031C48.2227 75.4031 55.7909 72.5997 61.8006 67.8962L61.7857 67.8865V63.1477C61.7857 61.3419 61.068 59.6105 59.7915 58.3334C58.5149 57.0568 56.7829 56.3395 54.9772 56.3395C52.4493 56.3395 50.0248 55.3353 48.2373 53.5477C46.4497 51.7602 45.4455 49.3357 45.4455 46.8078C45.4455 44.2798 46.4497 41.8554 48.2373 40.0678C50.0248 38.2803 52.4493 37.2761 54.9772 37.2761H66.5789C69.6497 37.293 72.6726 38.0391 75.3989 39.4529C75.1355 22.0358 62.2949 7.66807 45.5565 5.02941L45.4459 5.01222V16.8509C45.4459 19.3789 44.4416 21.8033 42.6541 23.5909C40.8665 25.3784 38.4421 26.3826 35.9141 26.3826C33.3862 26.3826 30.9617 27.3869 29.1742 29.1744C27.3867 30.962 26.3824 33.3864 26.3824 35.9144V44.0844C26.3824 46.6123 25.3782 49.0368 23.5907 50.8243C21.8031 52.6119 19.3787 53.6161 16.8507 53.6161H7.30957C12.6449 66.4099 25.2722 75.4031 39.9998 75.4031Z" fill="#52B325"/>
<path d="M40.0007 75.4031C48.2236 75.4031 55.7918 72.5997 61.8014 67.8962L61.7866 67.8865V63.1477C61.7866 61.3419 61.0694 59.6105 59.7923 58.3334C58.5157 57.0568 56.7839 56.3395 54.9781 56.3395C52.4502 56.3395 50.0257 55.3353 48.2382 53.5477C46.4507 51.7602 45.4464 49.3357 45.4464 46.8078C45.4464 44.2798 46.4507 41.8554 48.2382 40.0678C50.0257 38.2803 52.4502 37.2761 54.9781 37.2761H66.5797C69.6505 37.293 72.6734 38.0391 75.3997 39.4529C75.1363 22.0358 62.2957 7.66807 45.5574 5.02941L45.4468 5.01222V16.8509C45.4468 19.3789 44.4425 21.8033 42.655 23.5909C40.8675 25.3784 38.4431 26.3826 35.9151 26.3826C33.3871 26.3826 30.9627 27.3869 29.1751 29.1744C27.3876 30.962 26.3833 33.3864 26.3833 35.9144V44.0844C26.3833 46.6123 25.3791 49.0368 23.5916 50.8243C21.804 52.6119 19.3796 53.6161 16.8516 53.6161H7.31055C12.6459 66.4099 25.2731 75.4031 40.0007 75.4031Z" stroke="black" stroke-width="3" stroke-linecap="round" stroke-linejoin="round"/>
<path d="M61.8012 67.8973C70.0818 61.4173 75.4035 51.3301 75.4035 40.0002C75.4035 39.8178 75.4024 39.6356 75.3995 39.4538C72.6732 38.0399 69.6498 37.2938 66.5789 37.2769H54.9775C52.4496 37.2769 50.0251 38.2811 48.2376 40.0687C46.45 41.8562 45.4458 44.2806 45.4458 46.8086C45.4458 49.3366 46.45 51.761 48.2376 53.5486C50.0251 55.3361 52.4496 56.3403 54.9775 56.3403C56.7832 56.3403 58.5149 57.0577 59.7915 58.3344C61.0687 59.6115 61.7858 61.343 61.7858 63.1487V67.8875L61.8012 67.8973Z" stroke="black" stroke-width="3" stroke-linecap="round" stroke-linejoin="round"/>
<path d="M99.488 37.192C99.9573 37.8107 100.48 38.536 101.056 39.368C101.632 40.2 102.187 41.0427 102.72 41.896C103.275 42.728 103.776 43.5173 104.224 44.264C104.693 45.0107 105.045 45.608 105.28 46.056C105.493 46.4187 105.568 46.8133 105.504 47.24C105.461 47.6667 105.248 48.0187 104.864 48.296C104.48 48.5733 104.064 48.6907 103.616 48.648C103.168 48.584 102.837 48.4027 102.624 48.104C102.411 47.8267 102.336 47.56 102.4 47.304C102.464 47.0267 102.539 46.7493 102.624 46.472C102.368 46.0453 102.069 45.544 101.728 44.968C101.387 44.3707 101.024 43.752 100.64 43.112C100.256 42.472 99.8507 41.8213 99.424 41.16C98.9973 40.4987 98.5707 39.88 98.144 39.304C97.76 39.9653 97.3547 40.6587 96.928 41.384C96.5013 42.1093 96.0747 42.8133 95.648 43.496C95.2427 44.1787 94.8587 44.8293 94.496 45.448C94.1333 46.0453 93.824 46.5467 93.568 46.952C93.4187 47.1867 93.3333 47.4427 93.312 47.72C93.2907 47.9973 93.1627 48.3173 92.928 48.68C92.5653 49.2133 92.128 49.5333 91.616 49.64C91.1253 49.768 90.7093 49.6507 90.368 49.288C90.2187 49.1387 90.144 48.9253 90.144 48.648C90.144 48.3493 90.1973 48.04 90.304 47.72C90.4107 47.4 90.5493 47.0907 90.72 46.792C90.912 46.472 91.1253 46.216 91.36 46.024C91.9147 45.128 92.5013 44.1573 93.12 43.112C93.76 42.0453 94.4 40.968 95.04 39.88C95.68 38.7707 96.2987 37.6827 96.896 36.616C97.5147 35.528 98.0693 34.5253 98.56 33.608C99.0293 32.776 99.232 32.264 99.168 32.072C99.104 31.88 98.8053 31.784 98.272 31.784C96.9707 31.7413 95.6373 31.752 94.272 31.816C92.9067 31.8587 91.5733 31.9013 90.272 31.944C89.824 31.944 89.4827 31.8373 89.248 31.624C89.0133 31.4107 88.8747 31.176 88.832 30.92C88.7893 30.6213 88.896 30.344 89.152 30.088C89.408 29.832 89.792 29.704 90.304 29.704C90.56 29.704 90.9013 29.704 91.328 29.704C91.7547 29.704 92.1067 29.6933 92.384 29.672C93.664 29.608 95.0187 29.5653 96.448 29.544C97.8987 29.5227 99.264 29.5653 100.544 29.672C101.632 29.7787 102.283 30.0347 102.496 30.44C102.731 30.824 102.624 31.464 102.176 32.36C101.792 33.128 101.376 33.9067 100.928 34.696C100.48 35.464 100 36.296 99.488 37.192ZM108.448 49.704C108.469 49.512 108.491 49.256 108.512 48.936C108.555 48.616 108.576 48.3493 108.576 48.136C108.555 47.4747 108.533 46.6533 108.512 45.672C108.512 44.6907 108.512 43.6347 108.512 42.504C108.533 41.3733 108.555 40.2 108.576 38.984C108.619 37.768 108.651 36.5947 108.672 35.464C108.715 34.3333 108.757 33.2773 108.8 32.296C108.864 31.2933 108.928 30.4507 108.992 29.768C109.056 28.7867 109.536 28.328 110.432 28.392C110.88 28.456 111.179 28.6267 111.328 28.904C111.477 29.1813 111.531 29.4907 111.488 29.832C111.424 30.5147 111.371 31.3467 111.328 32.328C111.285 33.3093 111.243 34.3653 111.2 35.496C111.179 36.6267 111.157 37.8 111.136 39.016C111.136 40.2107 111.125 41.3733 111.104 42.504C111.104 43.6133 111.104 44.6587 111.104 45.64C111.104 46.6 111.104 47.4107 111.104 48.072C111.125 48.328 111.147 48.5733 111.168 48.808C111.189 49.0427 111.179 49.32 111.136 49.64C111.136 50.0027 111.008 50.312 110.752 50.568C110.496 50.824 110.123 50.9413 109.632 50.92C109.205 50.8347 108.907 50.696 108.736 50.504C108.565 50.3333 108.469 50.0667 108.448 49.704ZM130.11 44.616C129.278 44.6587 128.414 44.68 127.518 44.68C126.643 44.68 125.811 44.6693 125.022 44.648C125.043 44.7973 125.054 45.1067 125.054 45.576C125.075 46.024 125.086 46.504 125.086 47.016C125.107 47.528 125.118 48.008 125.118 48.456C125.118 48.904 125.118 49.2027 125.118 49.352C125.118 49.8427 125.107 50.312 125.086 50.76C125.064 51.2293 125.043 51.6453 125.022 52.008C124.958 52.4987 124.872 52.8187 124.766 52.968C124.659 53.1173 124.52 53.256 124.35 53.384C124.03 53.5547 123.784 53.6293 123.614 53.608C123.187 53.544 122.846 53.3413 122.59 53C122.334 52.6587 122.227 52.232 122.27 51.72C122.312 51.4213 122.387 51.1013 122.494 50.76C122.6 50.44 122.643 50.1733 122.622 49.96C122.6 49.8107 122.579 49.512 122.558 49.064C122.558 48.6373 122.547 48.1573 122.526 47.624C122.526 47.0907 122.526 46.5573 122.526 46.024C122.526 45.4693 122.526 45 122.526 44.616C121.95 44.616 121.352 44.616 120.734 44.616C120.115 44.616 119.518 44.616 118.942 44.616C118.366 44.5947 117.832 44.5733 117.342 44.552C116.851 44.5307 116.435 44.5093 116.094 44.488C115.582 44.4453 115.144 44.3173 114.782 44.104C114.419 43.8907 114.248 43.56 114.27 43.112C114.291 42.792 114.419 42.5253 114.654 42.312C114.888 42.0773 115.187 41.9813 115.549 42.024C115.72 42.024 115.955 42.056 116.254 42.12C116.552 42.184 116.83 42.2267 117.086 42.248C118.622 42.3547 121.064 42.4187 124.414 42.44C124.819 42.44 125.299 42.44 125.854 42.44C126.43 42.44 126.984 42.44 127.518 42.44C128.072 42.44 128.574 42.44 129.022 42.44C129.491 42.4187 129.843 42.3973 130.078 42.376C130.355 42.3333 130.622 42.3013 130.878 42.28C131.155 42.2587 131.454 42.2693 131.774 42.312C132.136 42.3333 132.435 42.472 132.67 42.728C132.904 42.984 133.011 43.2613 132.99 43.56C132.968 44.4133 132.403 44.8187 131.294 44.776C131.144 44.7547 130.952 44.7333 130.718 44.712C130.483 44.6907 130.28 44.6587 130.11 44.616ZM120.126 28.904C120.446 28.8827 120.894 28.8613 121.47 28.84C122.046 28.7973 122.696 28.7653 123.422 28.744C124.168 28.7013 124.947 28.68 125.758 28.68C126.59 28.6587 127.39 28.6587 128.158 28.68C128.563 28.7013 128.904 28.7547 129.182 28.84C129.48 28.904 129.683 29.0213 129.79 29.192C129.832 29.2773 129.886 29.5013 129.95 29.864C130.014 30.2267 130.067 30.664 130.11 31.176C130.174 31.688 130.227 32.2533 130.27 32.872C130.312 33.4907 130.344 34.1093 130.366 34.728C130.387 35.3467 130.387 35.9333 130.366 36.488C130.344 37.0427 130.302 37.512 130.238 37.896C130.174 38.408 130.099 38.8667 130.014 39.272C129.95 39.656 129.918 39.8693 129.918 39.912C129.875 40.232 129.726 40.5093 129.47 40.744C129.235 40.9787 128.947 41.0747 128.606 41.032C128.243 40.9893 127.944 40.84 127.71 40.584C127.496 40.328 127.422 39.9867 127.486 39.56C127.592 38.856 127.667 38.1093 127.71 37.32C127.774 36.5093 127.806 35.72 127.806 34.952C127.806 34.1627 127.784 33.416 127.742 32.712C127.699 32.008 127.635 31.4107 127.55 30.92V30.952C127.4 30.952 127.123 30.952 126.718 30.952C126.312 30.9307 125.875 30.92 125.406 30.92C124.958 30.92 124.51 30.92 124.062 30.92C123.635 30.8987 123.315 30.888 123.102 30.888C122.803 30.888 122.43 30.9093 121.982 30.952C121.555 30.9733 121.107 31.0053 120.638 31.048C120.168 31.0693 119.71 31.1013 119.262 31.144C118.814 31.1867 118.43 31.2187 118.11 31.24C117.448 31.304 116.968 31.0907 116.67 30.6C116.52 30.3653 116.488 30.0773 116.574 29.736C116.68 29.3733 116.851 29.1387 117.086 29.032C117.32 28.904 117.608 28.8293 117.95 28.808C118.312 28.7653 118.622 28.7973 118.878 28.904C119.07 28.8827 119.262 28.8827 119.454 28.904C119.667 28.9253 119.891 28.9253 120.126 28.904ZM147.258 36.2C146.852 36.2 146.575 36.0933 146.426 35.88C146.426 35.9653 146.426 36.04 146.426 36.104C146.447 36.168 146.458 36.232 146.458 36.296C146.458 36.5947 146.458 36.9147 146.458 37.256C146.479 37.576 146.458 37.8853 146.394 38.184C146.33 38.4613 146.212 38.7173 146.042 38.952C145.871 39.1653 145.604 39.3147 145.242 39.4C144.815 39.528 144.271 39.6667 143.61 39.816C142.97 39.944 142.308 40.072 141.626 40.2C140.943 40.328 140.282 40.4347 139.641 40.52C139.002 40.6053 138.49 40.648 138.106 40.648C136.975 40.648 136.356 40.1147 136.25 39.048C136.186 38.3227 136.132 37.6507 136.09 37.032C136.068 36.392 136.047 35.7627 136.026 35.144C136.026 34.5253 136.026 33.896 136.026 33.256C136.026 32.5947 136.026 31.8907 136.026 31.144C136.026 30.7173 135.972 30.28 135.866 29.832C135.78 29.384 135.738 28.904 135.738 28.392C135.738 28.0293 135.802 27.688 135.93 27.368C136.079 27.048 136.335 26.8667 136.698 26.824C137.188 26.76 137.53 26.8347 137.722 27.048C137.914 27.2613 138.042 27.5813 138.106 28.008C138.17 28.52 138.212 29.0427 138.234 29.576C138.276 30.088 138.308 30.5787 138.33 31.048C138.351 31.496 138.362 31.9013 138.362 32.264C138.362 32.6053 138.362 32.8613 138.362 33.032C138.746 32.968 139.204 32.9147 139.738 32.872C140.292 32.8293 140.836 32.7867 141.37 32.744C141.924 32.68 142.447 32.6267 142.938 32.584C143.428 32.5413 143.823 32.488 144.122 32.424C144.079 31.8693 144.047 31.3893 144.026 30.984C144.026 30.5573 144.004 30.2053 143.962 29.928C143.919 29.608 143.876 29.3093 143.834 29.032C143.812 28.7333 143.802 28.488 143.802 28.296C143.802 27.9547 143.908 27.688 144.122 27.496C144.335 27.2827 144.591 27.176 144.89 27.176C145.316 27.176 145.615 27.3147 145.786 27.592C145.978 27.8693 146.084 28.2213 146.106 28.648C146.148 29.0107 146.18 29.3947 146.202 29.8C146.223 30.184 146.244 30.5893 146.266 31.016C146.351 30.9093 146.458 30.8133 146.586 30.728C146.735 30.6427 146.927 30.5893 147.162 30.568C147.994 30.504 148.772 30.4827 149.498 30.504C150.244 30.5253 151.087 30.5893 152.026 30.696C152.026 30.376 152.026 30.088 152.026 29.832C152.047 29.576 152.079 29.32 152.122 29.064C152.164 28.3173 152.506 27.944 153.146 27.944C153.444 27.944 153.7 28.04 153.914 28.232C154.127 28.4027 154.234 28.6693 154.234 29.032C154.234 29.8427 154.223 30.7173 154.202 31.656C154.18 32.5733 154.159 33.4907 154.138 34.408C154.138 35.304 154.127 36.1573 154.106 36.968C154.084 37.7787 154.074 38.472 154.074 39.048C154.074 39.3253 153.978 39.5813 153.786 39.816C153.615 40.0293 153.316 40.136 152.89 40.136C152.548 40.136 152.282 39.9867 152.09 39.688C151.898 39.368 151.823 38.9947 151.866 38.568L151.962 36.36C151.151 36.296 150.319 36.2533 149.466 36.232C148.612 36.2107 147.876 36.2 147.258 36.2ZM143.61 40.712C144.036 40.7547 144.484 40.7867 144.954 40.808C145.444 40.8293 145.914 40.8507 146.362 40.872C146.81 40.872 147.215 40.872 147.578 40.872C147.962 40.8507 148.271 40.8293 148.506 40.808L150.106 40.744C150.66 40.7013 151.066 40.7547 151.322 40.904C151.599 41.0533 151.791 41.3947 151.898 41.928C151.94 42.184 151.962 42.504 151.962 42.888C151.962 43.272 151.951 43.6773 151.93 44.104C151.908 44.5093 151.876 44.9147 151.833 45.32C151.791 45.704 151.748 46.0347 151.706 46.312C151.642 46.8027 151.588 47.208 151.546 47.528C151.503 47.8267 151.439 48.0613 151.354 48.232C151.268 48.4027 151.14 48.5307 150.97 48.616C150.82 48.68 150.607 48.712 150.33 48.712C150.18 48.712 150.01 48.712 149.818 48.712C149.647 48.712 149.444 48.6907 149.21 48.648C148.463 48.5413 147.674 48.4347 146.842 48.328C146.01 48.2 145.21 48.104 144.442 48.04C144.207 49.0427 144.047 50.0987 143.962 51.208C143.919 51.528 143.983 51.7413 144.154 51.848C144.324 51.9547 144.527 52.0187 144.762 52.04C144.996 52.0613 145.295 52.072 145.658 52.072C146.02 52.072 146.351 52.072 146.65 52.072C147.14 52.072 147.642 52.072 148.154 52.072C148.666 52.072 149.199 52.0933 149.754 52.136C150.458 52.1147 150.98 52.1147 151.322 52.136C151.663 52.1787 151.929 52.2 152.122 52.2C153.38 52.2 153.999 52.6267 153.978 53.48C153.956 53.9067 153.796 54.1947 153.498 54.344C153.199 54.5147 152.836 54.5787 152.41 54.536C152.047 54.536 151.738 54.504 151.482 54.44C151.247 54.3973 151.044 54.3653 150.874 54.344H150.906C150.308 54.2587 149.69 54.216 149.05 54.216C148.41 54.216 147.78 54.216 147.162 54.216C146.586 54.216 146.074 54.2053 145.626 54.184C145.199 54.184 144.772 54.1733 144.345 54.152C143.364 54.1093 142.66 53.9067 142.234 53.544C141.807 53.1813 141.594 52.6053 141.594 51.816C141.594 51.432 141.615 51.0267 141.658 50.6C141.7 50.1947 141.754 49.7893 141.818 49.384C141.882 48.9787 141.946 48.5947 142.01 48.232C142.074 47.848 142.127 47.5173 142.17 47.24C142.276 46.8133 142.447 46.472 142.682 46.216C142.916 45.9387 143.3 45.8213 143.834 45.864C144.922 45.928 145.839 46.0133 146.586 46.12C147.332 46.2267 147.994 46.3013 148.57 46.344C148.954 46.3867 149.178 46.344 149.242 46.216C149.327 46.0667 149.391 45.768 149.434 45.32C149.498 44.9787 149.53 44.648 149.53 44.328C149.53 44.008 149.519 43.6667 149.498 43.304C149.498 43.2187 149.444 43.1547 149.338 43.112C149.252 43.048 149.146 43.016 149.018 43.016C148.122 43.0587 147.258 43.0907 146.426 43.112C145.615 43.1333 144.698 43.0907 143.674 42.984C143.162 42.9413 142.788 42.8027 142.554 42.568C142.319 42.3333 142.202 42.0453 142.202 41.704C142.202 41.384 142.319 41.128 142.554 40.936C142.788 40.744 143.14 40.6693 143.61 40.712ZM144.122 34.728C143.802 34.7707 143.364 34.824 142.81 34.888C142.255 34.9307 141.679 34.9733 141.082 35.016C140.484 35.0587 139.93 35.1013 139.418 35.144C138.906 35.1867 138.532 35.2187 138.298 35.24C138.298 35.3253 138.298 35.464 138.298 35.656C138.298 35.848 138.298 36.072 138.298 36.328C138.319 36.584 138.33 36.8507 138.33 37.128C138.33 37.384 138.33 37.6187 138.33 37.832C138.351 38.152 138.532 38.312 138.874 38.312C139.087 38.312 139.418 38.28 139.866 38.216C140.335 38.152 140.815 38.088 141.306 38.024C141.818 37.9387 142.298 37.8533 142.746 37.768C143.194 37.6613 143.535 37.576 143.77 37.512C143.962 37.4693 144.079 37.3947 144.122 37.288C144.186 37.1813 144.207 37.0107 144.186 36.776L144.122 34.728ZM146.362 34.536C146.575 34.2587 146.863 34.12 147.226 34.12C147.482 34.12 147.802 34.12 148.186 34.12C148.57 34.12 148.975 34.1307 149.402 34.152C149.85 34.1733 150.298 34.1947 150.746 34.216C151.194 34.2373 151.61 34.2693 151.994 34.312C152.015 33.9493 152.026 33.6187 152.026 33.32C152.026 33 152.026 32.7547 152.026 32.584C151.13 32.4987 150.298 32.456 149.53 32.456C148.762 32.456 147.983 32.4773 147.194 32.52C146.81 32.5413 146.511 32.4347 146.298 32.2L146.362 34.536Z" fill="black"/>
</svg>
