<svg width="30" height="42" viewBox="0 0 30 42" fill="none" xmlns="http://www.w3.org/2000/svg">
<g clip-path="url(#clip0_1592_5829)">
<path d="M8.05534 16.585C8.81374 16.585 9.54106 16.2837 10.0773 15.7475C10.6136 15.2112 10.9149 14.4839 10.9149 13.7255V11.2745C10.9149 10.5161 11.2161 9.78876 11.7524 9.25249C12.2887 8.71623 13.016 8.41496 13.7744 8.41496C14.5328 8.41496 15.2601 8.1137 15.7964 7.57743C16.3326 7.04117 16.6339 6.31383 16.6339 5.55545V2.00384C16.1013 1.9216 15.5556 1.87893 15 1.87893C9.13411 1.87893 4.37891 6.63415 4.37891 12.5C4.37891 13.9476 4.6685 15.3275 5.19292 16.585H8.05534Z" fill="#1611ED"/>
<path d="M21.5404 20.8692C24.0246 18.9252 25.6211 15.899 25.6211 12.5001C25.6211 12.4453 25.6208 12.3907 25.6199 12.3361C24.802 11.912 23.895 11.6881 22.9737 11.6831H19.4933C18.7349 11.6831 18.0076 11.9843 17.4713 12.5206C16.9351 13.0569 16.6338 13.7842 16.6338 14.5426C16.6338 15.301 16.9351 16.0283 17.4713 16.5646C18.0076 17.1008 18.7349 17.4021 19.4933 17.4021C20.035 17.4021 20.5545 17.6173 20.9375 18.0003C21.3206 18.3835 21.5358 18.9029 21.5358 19.4446V20.8663L21.5404 20.8692Z" fill="#1611ED"/>
<path d="M8.05534 16.585C8.81374 16.585 9.54106 16.2837 10.0773 15.7475C10.6136 15.2112 10.9149 14.4839 10.9149 13.7255V11.2745C10.9149 10.5161 11.2161 9.78876 11.7524 9.25249C12.2887 8.71623 13.016 8.41496 13.7744 8.41496C14.5328 8.41496 15.2601 8.11369 15.7964 7.57743C16.3326 7.04117 16.6339 6.31383 16.6339 5.55545V2.00384C16.1013 1.9216 15.5556 1.87893 15 1.87893C9.13411 1.87893 4.37891 6.63415 4.37891 12.5C4.37891 13.9476 4.6685 15.3275 5.19292 16.585H8.05534Z" stroke="black" stroke-width="3" stroke-linecap="round" stroke-linejoin="round"/>
<path d="M15.0004 23.1209C17.4673 23.1209 19.7377 22.2799 21.5406 20.8689L21.5362 20.866V19.4443C21.5362 18.9026 21.321 18.3832 20.9379 18C20.5549 17.617 20.0354 17.4018 19.4936 17.4018C18.7353 17.4018 18.0079 17.1006 17.4717 16.5643C16.9354 16.028 16.6341 15.3007 16.6341 14.5423C16.6341 13.7839 16.9354 13.0566 17.4717 12.5203C18.0079 11.9841 18.7353 11.6828 19.4936 11.6828H22.9741C23.8954 11.6879 24.8022 11.9117 25.6201 12.3359C25.5411 7.11073 21.6889 2.80042 16.6674 2.00882L16.6342 2.00367V5.55528C16.6342 6.31366 16.333 7.041 15.7967 7.57726C15.2604 8.11352 14.5331 8.41479 13.7747 8.41479C13.0163 8.41479 12.289 8.71606 11.7527 9.25232C11.2165 9.78858 10.9152 10.5159 10.9152 11.2743V13.7253C10.9152 14.4837 10.6139 15.211 10.0777 15.7473C9.54141 16.2836 8.81409 16.5848 8.05569 16.5848H5.19336C6.79397 20.423 10.5821 23.1209 15.0004 23.1209Z" stroke="black" stroke-width="3" stroke-linecap="round" stroke-linejoin="round"/>
<path d="M21.5404 20.8692C24.0246 18.9252 25.6211 15.899 25.6211 12.5001C25.6211 12.4453 25.6208 12.3907 25.6199 12.3361C24.802 11.912 23.895 11.6881 22.9737 11.6831H19.4933C18.7349 11.6831 18.0076 11.9843 17.4713 12.5206C16.9351 13.0569 16.6338 13.7842 16.6338 14.5426C16.6338 15.301 16.9351 16.0283 17.4713 16.5646C18.0076 17.1008 18.7349 17.4021 19.4933 17.4021C20.035 17.4021 20.5545 17.6173 20.9375 18.0003C21.3206 18.3835 21.5358 18.9029 21.5358 19.4446V20.8663L21.5404 20.8692Z" stroke="black" stroke-width="3" stroke-linecap="round" stroke-linejoin="round"/>
<path d="M15.207 22.8173C17.6738 22.8173 19.9443 21.9762 21.7472 20.5652L21.7428 20.5623V19.1406C21.7428 18.5989 21.5274 18.0795 21.1445 17.6963C20.7615 17.3134 20.2419 17.0982 19.7002 17.0982C18.9418 17.0982 18.2145 16.7969 17.6782 16.2606C17.142 15.7244 16.8407 14.997 16.8407 14.2387C16.8407 13.4803 17.142 12.7529 17.6782 12.2167C18.2145 11.6804 18.9418 11.3792 19.7002 11.3792H23.1807C24.102 11.3842 25.0088 11.6081 25.8267 12.0322C25.7477 6.80707 21.8955 2.49675 16.874 1.70516L16.8408 1.7V5.25161C16.8408 6.00999 16.5395 6.73733 16.0033 7.27359C15.467 7.80986 14.7397 8.11113 13.9813 8.11113C13.2229 8.11113 12.4956 8.41239 11.9593 8.94866C11.423 9.48492 11.1218 10.2123 11.1218 10.9706V13.4217C11.1218 14.18 10.8205 14.9074 10.2842 15.4436C9.74796 15.9799 9.02063 16.2812 8.26224 16.2812H5.3999C7.00051 20.1193 10.7887 22.8173 15.207 22.8173Z" fill="#52B325"/>
</g>
<path d="M4.308 35.072C4.484 35.304 4.68 35.576 4.896 35.888C5.112 36.2 5.32 36.516 5.52 36.836C5.728 37.148 5.916 37.444 6.084 37.724C6.26 38.004 6.392 38.228 6.48 38.396C6.56 38.532 6.588 38.68 6.564 38.84C6.548 39 6.468 39.132 6.324 39.236C6.18 39.34 6.024 39.384 5.856 39.368C5.688 39.344 5.564 39.276 5.484 39.164C5.404 39.06 5.376 38.96 5.4 38.864C5.424 38.76 5.452 38.656 5.484 38.552C5.388 38.392 5.276 38.204 5.148 37.988C5.02 37.764 4.884 37.532 4.74 37.292C4.596 37.052 4.444 36.808 4.284 36.56C4.124 36.312 3.964 36.08 3.804 35.864C3.66 36.112 3.508 36.372 3.348 36.644C3.188 36.916 3.028 37.18 2.868 37.436C2.716 37.692 2.572 37.936 2.436 38.168C2.3 38.392 2.184 38.58 2.088 38.732C2.032 38.82 2 38.916 1.992 39.02C1.984 39.124 1.936 39.244 1.848 39.38C1.712 39.58 1.548 39.7 1.356 39.74C1.172 39.788 1.016 39.744 0.888 39.608C0.832 39.552 0.804 39.472 0.804 39.368C0.804 39.256 0.824 39.14 0.864 39.02C0.904 38.9 0.956 38.784 1.02 38.672C1.092 38.552 1.172 38.456 1.26 38.384C1.468 38.048 1.688 37.684 1.92 37.292C2.16 36.892 2.4 36.488 2.64 36.08C2.88 35.664 3.112 35.256 3.336 34.856C3.568 34.448 3.776 34.072 3.96 33.728C4.136 33.416 4.212 33.224 4.188 33.152C4.164 33.08 4.052 33.044 3.852 33.044C3.364 33.028 2.864 33.032 2.352 33.056C1.84 33.072 1.34 33.088 0.852 33.104C0.684 33.104 0.556 33.064 0.468 32.984C0.38 32.904 0.328 32.816 0.312 32.72C0.296 32.608 0.336 32.504 0.432 32.408C0.528 32.312 0.672 32.264 0.864 32.264C0.96 32.264 1.088 32.264 1.248 32.264C1.408 32.264 1.54 32.26 1.644 32.252C2.124 32.228 2.632 32.212 3.168 32.204C3.712 32.196 4.224 32.212 4.704 32.252C5.112 32.292 5.356 32.388 5.436 32.54C5.524 32.684 5.484 32.924 5.316 33.26C5.172 33.548 5.016 33.84 4.848 34.136C4.68 34.424 4.5 34.736 4.308 35.072ZM7.668 39.764C7.676 39.692 7.684 39.596 7.692 39.476C7.708 39.356 7.716 39.256 7.716 39.176C7.708 38.928 7.7 38.62 7.692 38.252C7.692 37.884 7.692 37.488 7.692 37.064C7.7 36.64 7.708 36.2 7.716 35.744C7.732 35.288 7.744 34.848 7.752 34.424C7.768 34 7.784 33.604 7.8 33.236C7.824 32.86 7.848 32.544 7.872 32.288C7.896 31.92 8.076 31.748 8.412 31.772C8.58 31.796 8.692 31.86 8.748 31.964C8.804 32.068 8.824 32.184 8.808 32.312C8.784 32.568 8.764 32.88 8.748 33.248C8.732 33.616 8.716 34.012 8.7 34.436C8.692 34.86 8.684 35.3 8.676 35.756C8.676 36.204 8.672 36.64 8.664 37.064C8.664 37.48 8.664 37.872 8.664 38.24C8.664 38.6 8.664 38.904 8.664 39.152C8.672 39.248 8.68 39.34 8.688 39.428C8.696 39.516 8.692 39.62 8.676 39.74C8.676 39.876 8.628 39.992 8.532 40.088C8.436 40.184 8.296 40.228 8.112 40.22C7.952 40.188 7.84 40.136 7.776 40.064C7.712 40 7.676 39.9 7.668 39.764ZM15.7911 37.856C15.4791 37.872 15.1551 37.88 14.8191 37.88C14.4911 37.88 14.1791 37.876 13.8831 37.868C13.8911 37.924 13.8951 38.04 13.8951 38.216C13.9031 38.384 13.9071 38.564 13.9071 38.756C13.9151 38.948 13.9191 39.128 13.9191 39.296C13.9191 39.464 13.9191 39.576 13.9191 39.632C13.9191 39.816 13.9151 39.992 13.9071 40.16C13.8991 40.336 13.8911 40.492 13.8831 40.628C13.8591 40.812 13.8271 40.932 13.7871 40.988C13.7471 41.044 13.6951 41.096 13.6311 41.144C13.5111 41.208 13.4191 41.236 13.3551 41.228C13.1951 41.204 13.0671 41.128 12.9711 41C12.8751 40.872 12.8351 40.712 12.8511 40.52C12.8671 40.408 12.8951 40.288 12.9351 40.16C12.9751 40.04 12.9911 39.94 12.9831 39.86C12.9751 39.804 12.9671 39.692 12.9591 39.524C12.9591 39.364 12.9551 39.184 12.9471 38.984C12.9471 38.784 12.9471 38.584 12.9471 38.384C12.9471 38.176 12.9471 38 12.9471 37.856C12.7311 37.856 12.5071 37.856 12.2751 37.856C12.0431 37.856 11.8191 37.856 11.6031 37.856C11.3871 37.848 11.1871 37.84 11.0031 37.832C10.8191 37.824 10.6631 37.816 10.5351 37.808C10.3431 37.792 10.1791 37.744 10.0431 37.664C9.90706 37.584 9.84306 37.46 9.85106 37.292C9.85906 37.172 9.90706 37.072 9.99506 36.992C10.0831 36.904 10.1951 36.868 10.3311 36.884C10.3951 36.884 10.4831 36.896 10.5951 36.92C10.7071 36.944 10.8111 36.96 10.9071 36.968C11.4831 37.008 12.3991 37.032 13.6551 37.04C13.8071 37.04 13.9871 37.04 14.1951 37.04C14.4111 37.04 14.6191 37.04 14.8191 37.04C15.0271 37.04 15.2151 37.04 15.3831 37.04C15.5591 37.032 15.6911 37.024 15.7791 37.016C15.8831 37 15.9831 36.988 16.0791 36.98C16.1831 36.972 16.2951 36.976 16.4151 36.992C16.5511 37 16.6631 37.052 16.7511 37.148C16.8391 37.244 16.8791 37.348 16.8711 37.46C16.8631 37.78 16.6511 37.932 16.2351 37.916C16.1791 37.908 16.1071 37.9 16.0191 37.892C15.9311 37.884 15.8551 37.872 15.7911 37.856ZM12.0471 31.964C12.1671 31.956 12.3351 31.948 12.5511 31.94C12.7671 31.924 13.0111 31.912 13.2831 31.904C13.5631 31.888 13.8551 31.88 14.1591 31.88C14.4711 31.872 14.7711 31.872 15.0591 31.88C15.2111 31.888 15.3391 31.908 15.4431 31.94C15.5551 31.964 15.6311 32.008 15.6711 32.072C15.6871 32.104 15.7071 32.188 15.7311 32.324C15.7551 32.46 15.7751 32.624 15.7911 32.816C15.8151 33.008 15.8351 33.22 15.8511 33.452C15.8671 33.684 15.8791 33.916 15.8871 34.148C15.8951 34.38 15.8951 34.6 15.8871 34.808C15.8791 35.016 15.8631 35.192 15.8391 35.336C15.8151 35.528 15.7871 35.7 15.7551 35.852C15.7311 35.996 15.7191 36.076 15.7191 36.092C15.7031 36.212 15.6471 36.316 15.5511 36.404C15.4631 36.492 15.3551 36.528 15.2271 36.512C15.0911 36.496 14.9791 36.44 14.8911 36.344C14.8111 36.248 14.7831 36.12 14.8071 35.96C14.8471 35.696 14.8751 35.416 14.8911 35.12C14.9151 34.816 14.9271 34.52 14.9271 34.232C14.9271 33.936 14.9191 33.656 14.9031 33.392C14.8871 33.128 14.8631 32.904 14.8311 32.72V32.732C14.7751 32.732 14.6711 32.732 14.5191 32.732C14.3671 32.724 14.2031 32.72 14.0271 32.72C13.8591 32.72 13.6911 32.72 13.5231 32.72C13.3631 32.712 13.2431 32.708 13.1631 32.708C13.0511 32.708 12.9111 32.716 12.7431 32.732C12.5831 32.74 12.4151 32.752 12.2391 32.768C12.0631 32.776 11.8911 32.788 11.7231 32.804C11.5551 32.82 11.4111 32.832 11.2911 32.84C11.0431 32.864 10.8631 32.784 10.7511 32.6C10.6951 32.512 10.6831 32.404 10.7151 32.276C10.7551 32.14 10.8191 32.052 10.9071 32.012C10.9951 31.964 11.1031 31.936 11.2311 31.928C11.3671 31.912 11.4831 31.924 11.5791 31.964C11.6511 31.956 11.7231 31.956 11.7951 31.964C11.8751 31.972 11.9591 31.972 12.0471 31.964ZM22.2216 34.7C22.0696 34.7 21.9656 34.66 21.9096 34.58C21.9096 34.612 21.9096 34.64 21.9096 34.664C21.9176 34.688 21.9216 34.712 21.9216 34.736C21.9216 34.848 21.9216 34.968 21.9216 35.096C21.9296 35.216 21.9216 35.332 21.8976 35.444C21.8736 35.548 21.8296 35.644 21.7656 35.732C21.7016 35.812 21.6016 35.868 21.4656 35.9C21.3056 35.948 21.1016 36 20.8536 36.056C20.6136 36.104 20.3656 36.152 20.1096 36.2C19.8536 36.248 19.6056 36.288 19.3656 36.32C19.1256 36.352 18.9336 36.368 18.7896 36.368C18.3656 36.368 18.1336 36.168 18.0936 35.768C18.0696 35.496 18.0496 35.244 18.0336 35.012C18.0256 34.772 18.0176 34.536 18.0096 34.304C18.0096 34.072 18.0096 33.836 18.0096 33.596C18.0096 33.348 18.0096 33.084 18.0096 32.804C18.0096 32.644 17.9896 32.48 17.9496 32.312C17.9176 32.144 17.9016 31.964 17.9016 31.772C17.9016 31.636 17.9256 31.508 17.9736 31.388C18.0296 31.268 18.1256 31.2 18.2616 31.184C18.4456 31.16 18.5736 31.188 18.6456 31.268C18.7176 31.348 18.7656 31.468 18.7896 31.628C18.8136 31.82 18.8296 32.016 18.8376 32.216C18.8536 32.408 18.8656 32.592 18.8736 32.768C18.8816 32.936 18.8856 33.088 18.8856 33.224C18.8856 33.352 18.8856 33.448 18.8856 33.512C19.0296 33.488 19.2016 33.468 19.4016 33.452C19.6096 33.436 19.8136 33.42 20.0136 33.404C20.2216 33.38 20.4176 33.36 20.6016 33.344C20.7856 33.328 20.9336 33.308 21.0456 33.284C21.0296 33.076 21.0176 32.896 21.0096 32.744C21.0096 32.584 21.0016 32.452 20.9856 32.348C20.9696 32.228 20.9536 32.116 20.9376 32.012C20.9296 31.9 20.9256 31.808 20.9256 31.736C20.9256 31.608 20.9656 31.508 21.0456 31.436C21.1256 31.356 21.2216 31.316 21.3336 31.316C21.4936 31.316 21.6056 31.368 21.6696 31.472C21.7416 31.576 21.7816 31.708 21.7896 31.868C21.8056 32.004 21.8176 32.148 21.8256 32.3C21.8336 32.444 21.8416 32.596 21.8496 32.756C21.8816 32.716 21.9216 32.68 21.9696 32.648C22.0256 32.616 22.0976 32.596 22.1856 32.588C22.4976 32.564 22.7896 32.556 23.0616 32.564C23.3416 32.572 23.6576 32.596 24.0096 32.636C24.0096 32.516 24.0096 32.408 24.0096 32.312C24.0176 32.216 24.0296 32.12 24.0456 32.024C24.0616 31.744 24.1896 31.604 24.4296 31.604C24.5416 31.604 24.6376 31.64 24.7176 31.712C24.7976 31.776 24.8376 31.876 24.8376 32.012C24.8376 32.316 24.8336 32.644 24.8256 32.996C24.8176 33.34 24.8096 33.684 24.8016 34.028C24.8016 34.364 24.7976 34.684 24.7896 34.988C24.7816 35.292 24.7776 35.552 24.7776 35.768C24.7776 35.872 24.7416 35.968 24.6696 36.056C24.6056 36.136 24.4936 36.176 24.3336 36.176C24.2056 36.176 24.1056 36.12 24.0336 36.008C23.9616 35.888 23.9336 35.748 23.9496 35.588L23.9856 34.76C23.6816 34.736 23.3696 34.72 23.0496 34.712C22.7296 34.704 22.4536 34.7 22.2216 34.7ZM20.8536 36.392C21.0136 36.408 21.1816 36.42 21.3576 36.428C21.5416 36.436 21.7176 36.444 21.8856 36.452C22.0536 36.452 22.2056 36.452 22.3416 36.452C22.4856 36.444 22.6016 36.436 22.6896 36.428L23.2896 36.404C23.4976 36.388 23.6496 36.408 23.7456 36.464C23.8496 36.52 23.9216 36.648 23.9616 36.848C23.9776 36.944 23.9856 37.064 23.9856 37.208C23.9856 37.352 23.9816 37.504 23.9736 37.664C23.9656 37.816 23.9536 37.968 23.9376 38.12C23.9216 38.264 23.9056 38.388 23.8896 38.492C23.8656 38.676 23.8456 38.828 23.8296 38.948C23.8136 39.06 23.7896 39.148 23.7576 39.212C23.7256 39.276 23.6776 39.324 23.6136 39.356C23.5576 39.38 23.4776 39.392 23.3736 39.392C23.3176 39.392 23.2536 39.392 23.1816 39.392C23.1176 39.392 23.0416 39.384 22.9536 39.368C22.6736 39.328 22.3776 39.288 22.0656 39.248C21.7536 39.2 21.4536 39.164 21.1656 39.14C21.0776 39.516 21.0176 39.912 20.9856 40.328C20.9696 40.448 20.9936 40.528 21.0576 40.568C21.1216 40.608 21.1976 40.632 21.2856 40.64C21.3736 40.648 21.4856 40.652 21.6216 40.652C21.7576 40.652 21.8816 40.652 21.9936 40.652C22.1776 40.652 22.3656 40.652 22.5576 40.652C22.7496 40.652 22.9496 40.66 23.1576 40.676C23.4216 40.668 23.6176 40.668 23.7456 40.676C23.8736 40.692 23.9736 40.7 24.0456 40.7C24.5176 40.7 24.7496 40.86 24.7416 41.18C24.7336 41.34 24.6736 41.448 24.5616 41.504C24.4496 41.568 24.3136 41.592 24.1536 41.576C24.0176 41.576 23.9016 41.564 23.8056 41.54C23.7176 41.524 23.6416 41.512 23.5776 41.504H23.5896C23.3656 41.472 23.1336 41.456 22.8936 41.456C22.6536 41.456 22.4176 41.456 22.1856 41.456C21.9696 41.456 21.7776 41.452 21.6096 41.444C21.4496 41.444 21.2896 41.44 21.1296 41.432C20.7616 41.416 20.4976 41.34 20.3376 41.204C20.1776 41.068 20.0976 40.852 20.0976 40.556C20.0976 40.412 20.1056 40.26 20.1216 40.1C20.1376 39.948 20.1576 39.796 20.1816 39.644C20.2056 39.492 20.2296 39.348 20.2536 39.212C20.2776 39.068 20.2976 38.944 20.3136 38.84C20.3536 38.68 20.4176 38.552 20.5056 38.456C20.5936 38.352 20.7376 38.308 20.9376 38.324C21.3456 38.348 21.6896 38.38 21.9696 38.42C22.2496 38.46 22.4976 38.488 22.7136 38.504C22.8576 38.52 22.9416 38.504 22.9656 38.456C22.9976 38.4 23.0216 38.288 23.0376 38.12C23.0616 37.992 23.0736 37.868 23.0736 37.748C23.0736 37.628 23.0696 37.5 23.0616 37.364C23.0616 37.332 23.0416 37.308 23.0016 37.292C22.9696 37.268 22.9296 37.256 22.8816 37.256C22.5456 37.272 22.2216 37.284 21.9096 37.292C21.6056 37.3 21.2616 37.284 20.8776 37.244C20.6856 37.228 20.5456 37.176 20.4576 37.088C20.3696 37 20.3256 36.892 20.3256 36.764C20.3256 36.644 20.3696 36.548 20.4576 36.476C20.5456 36.404 20.6776 36.376 20.8536 36.392ZM21.0456 34.148C20.9256 34.164 20.7616 34.184 20.5536 34.208C20.3456 34.224 20.1296 34.24 19.9056 34.256C19.6816 34.272 19.4736 34.288 19.2816 34.304C19.0896 34.32 18.9496 34.332 18.8616 34.34C18.8616 34.372 18.8616 34.424 18.8616 34.496C18.8616 34.568 18.8616 34.652 18.8616 34.748C18.8696 34.844 18.8736 34.944 18.8736 35.048C18.8736 35.144 18.8736 35.232 18.8736 35.312C18.8816 35.432 18.9496 35.492 19.0776 35.492C19.1576 35.492 19.2816 35.48 19.4496 35.456C19.6256 35.432 19.8056 35.408 19.9896 35.384C20.1816 35.352 20.3616 35.32 20.5296 35.288C20.6976 35.248 20.8256 35.216 20.9136 35.192C20.9856 35.176 21.0296 35.148 21.0456 35.108C21.0696 35.068 21.0776 35.004 21.0696 34.916L21.0456 34.148ZM21.8856 34.076C21.9656 33.972 22.0736 33.92 22.2096 33.92C22.3056 33.92 22.4256 33.92 22.5696 33.92C22.7136 33.92 22.8656 33.924 23.0256 33.932C23.1936 33.94 23.3616 33.948 23.5296 33.956C23.6976 33.964 23.8536 33.976 23.9976 33.992C24.0056 33.856 24.0096 33.732 24.0096 33.62C24.0096 33.5 24.0096 33.408 24.0096 33.344C23.6736 33.312 23.3616 33.296 23.0736 33.296C22.7856 33.296 22.4936 33.304 22.1976 33.32C22.0536 33.328 21.9416 33.288 21.8616 33.2L21.8856 34.076Z" fill="black"/>
<defs>
<clipPath id="clip0_1592_5829">
<rect width="24" height="24" fill="white" transform="translate(3 0.5)"/>
</clipPath>
</defs>
</svg>
