<svg width="60" height="24" viewBox="0 0 60 24" fill="none" xmlns="http://www.w3.org/2000/svg">
<g clip-path="url(#clip0_1592_5844)">
<path d="M6.05534 16.085C6.81374 16.085 7.54106 15.7837 8.07733 15.2475C8.61359 14.7112 8.91486 13.9839 8.91486 13.2255V10.7745C8.91486 10.0161 9.21613 9.28876 9.75239 8.7525C10.2887 8.21624 11.016 7.91497 11.7744 7.91497C12.5328 7.91497 13.2601 7.6137 13.7964 7.07744C14.3326 6.54118 14.6339 5.81384 14.6339 5.05546V1.50384C14.1013 1.42161 13.5556 1.37894 13 1.37894C7.13411 1.37894 2.37891 6.13415 2.37891 12C2.37891 13.4476 2.6685 14.8275 3.19292 16.085H6.05534Z" fill="#1611ED"/>
<path d="M19.5404 20.3692C22.0246 18.4252 23.6211 15.399 23.6211 12.0001C23.6211 11.9453 23.6208 11.8907 23.6199 11.8361C22.802 11.412 21.895 11.1881 20.9737 11.1831H17.4933C16.7349 11.1831 16.0076 11.4843 15.4713 12.0206C14.9351 12.5569 14.6338 13.2842 14.6338 14.0426C14.6338 14.801 14.9351 15.5283 15.4713 16.0646C16.0076 16.6008 16.7349 16.9021 17.4933 16.9021C18.035 16.9021 18.5545 17.1173 18.9375 17.5003C19.3206 17.8835 19.5358 18.4029 19.5358 18.9446V20.3663L19.5404 20.3692Z" fill="#1611ED"/>
<path d="M6.05534 16.085C6.81374 16.085 7.54106 15.7837 8.07733 15.2475C8.61359 14.7112 8.91486 13.9839 8.91486 13.2255V10.7745C8.91486 10.0161 9.21613 9.28877 9.75239 8.7525C10.2887 8.21624 11.016 7.91497 11.7744 7.91497C12.5328 7.91497 13.2601 7.6137 13.7964 7.07744C14.3326 6.54118 14.6339 5.81384 14.6339 5.05546V1.50384C14.1013 1.42161 13.5556 1.37894 13 1.37894C7.13411 1.37894 2.37891 6.13415 2.37891 12C2.37891 13.4476 2.6685 14.8275 3.19292 16.085H6.05534Z" stroke="black" stroke-width="3" stroke-linecap="round" stroke-linejoin="round"/>
<path d="M13.0004 22.6209C15.4673 22.6209 17.7377 21.7799 19.5406 20.3689L19.5362 20.3659V18.9443C19.5362 18.4026 19.321 17.8831 18.9379 17.5C18.5549 17.117 18.0354 16.9018 17.4936 16.9018C16.7353 16.9018 16.0079 16.6006 15.4717 16.0643C14.9354 15.528 14.6341 14.8007 14.6341 14.0423C14.6341 13.2839 14.9354 12.5566 15.4717 12.0203C16.0079 11.4841 16.7353 11.1828 17.4936 11.1828H20.9741C21.8954 11.1879 22.8022 11.4117 23.6201 11.8359C23.5411 6.61073 19.6889 2.30042 14.6674 1.50882L14.6342 1.50366V5.05527C14.6342 5.81365 14.333 6.54099 13.7967 7.07725C13.2604 7.61352 12.5331 7.91479 11.7747 7.91479C11.0163 7.91479 10.289 8.21605 9.75273 8.75232C9.21647 9.28858 8.9152 10.0159 8.9152 10.7743V13.2253C8.9152 13.9837 8.61393 14.711 8.07767 15.2473C7.54141 15.7836 6.81409 16.0848 6.05569 16.0848H3.19336C4.79397 19.923 8.58213 22.6209 13.0004 22.6209Z" stroke="black" stroke-width="3" stroke-linecap="round" stroke-linejoin="round"/>
<path d="M19.5404 20.3692C22.0246 18.4252 23.6211 15.399 23.6211 12.0001C23.6211 11.9453 23.6208 11.8907 23.6199 11.8361C22.802 11.412 21.895 11.1881 20.9737 11.1831H17.4933C16.7349 11.1831 16.0076 11.4843 15.4713 12.0206C14.9351 12.5569 14.6338 13.2842 14.6338 14.0426C14.6338 14.801 14.9351 15.5283 15.4713 16.0646C16.0076 16.6008 16.7349 16.9021 17.4933 16.9021C18.035 16.9021 18.5545 17.1173 18.9375 17.5003C19.3206 17.8835 19.5358 18.4029 19.5358 18.9446V20.3663L19.5404 20.3692Z" stroke="black" stroke-width="3" stroke-linecap="round" stroke-linejoin="round"/>
<path d="M13.207 22.3173C15.6738 22.3173 17.9443 21.4762 19.7472 20.0652L19.7428 20.0623V18.6406C19.7428 18.0989 19.5274 17.5795 19.1445 17.1963C18.7615 16.8134 18.2419 16.5982 17.7002 16.5982C16.9418 16.5982 16.2145 16.2969 15.6782 15.7606C15.142 15.2244 14.8407 14.497 14.8407 13.7387C14.8407 12.9803 15.142 12.2529 15.6782 11.7167C16.2145 11.1804 16.9418 10.8791 17.7002 10.8791H21.1807C22.102 10.8842 23.0088 11.1081 23.8267 11.5322C23.7477 6.30706 19.8955 1.99675 14.874 1.20515L14.8408 1.2V4.75161C14.8408 5.50999 14.5395 6.23733 14.0033 6.77359C13.467 7.30985 12.7397 7.61112 11.9813 7.61112C11.2229 7.61112 10.4956 7.91239 9.95929 8.44865C9.42303 8.98492 9.12176 9.71225 9.12176 10.4706V12.9217C9.12176 13.68 8.82049 14.4074 8.28423 14.9436C7.74796 15.4799 7.02063 15.7812 6.26224 15.7812H3.3999C5.00051 19.6193 8.78869 22.3173 13.207 22.3173Z" fill="#52B325"/>
</g>
<path d="M33.308 11.072C33.484 11.304 33.68 11.576 33.896 11.888C34.112 12.2 34.32 12.516 34.52 12.836C34.728 13.148 34.916 13.444 35.084 13.724C35.26 14.004 35.392 14.228 35.48 14.396C35.56 14.532 35.588 14.68 35.564 14.84C35.548 15 35.468 15.132 35.324 15.236C35.18 15.34 35.024 15.384 34.856 15.368C34.688 15.344 34.564 15.276 34.484 15.164C34.404 15.06 34.376 14.96 34.4 14.864C34.424 14.76 34.452 14.656 34.484 14.552C34.388 14.392 34.276 14.204 34.148 13.988C34.02 13.764 33.884 13.532 33.74 13.292C33.596 13.052 33.444 12.808 33.284 12.56C33.124 12.312 32.964 12.08 32.804 11.864C32.66 12.112 32.508 12.372 32.348 12.644C32.188 12.916 32.028 13.18 31.868 13.436C31.716 13.692 31.572 13.936 31.436 14.168C31.3 14.392 31.184 14.58 31.088 14.732C31.032 14.82 31 14.916 30.992 15.02C30.984 15.124 30.936 15.244 30.848 15.38C30.712 15.58 30.548 15.7 30.356 15.74C30.172 15.788 30.016 15.744 29.888 15.608C29.832 15.552 29.804 15.472 29.804 15.368C29.804 15.256 29.824 15.14 29.864 15.02C29.904 14.9 29.956 14.784 30.02 14.672C30.092 14.552 30.172 14.456 30.26 14.384C30.468 14.048 30.688 13.684 30.92 13.292C31.16 12.892 31.4 12.488 31.64 12.08C31.88 11.664 32.112 11.256 32.336 10.856C32.568 10.448 32.776 10.072 32.96 9.728C33.136 9.416 33.212 9.224 33.188 9.152C33.164 9.08 33.052 9.044 32.852 9.044C32.364 9.028 31.864 9.032 31.352 9.056C30.84 9.072 30.34 9.088 29.852 9.104C29.684 9.104 29.556 9.064 29.468 8.984C29.38 8.904 29.328 8.816 29.312 8.72C29.296 8.608 29.336 8.504 29.432 8.408C29.528 8.312 29.672 8.264 29.864 8.264C29.96 8.264 30.088 8.264 30.248 8.264C30.408 8.264 30.54 8.26 30.644 8.252C31.124 8.228 31.632 8.212 32.168 8.204C32.712 8.196 33.224 8.212 33.704 8.252C34.112 8.292 34.356 8.388 34.436 8.54C34.524 8.684 34.484 8.924 34.316 9.26C34.172 9.548 34.016 9.84 33.848 10.136C33.68 10.424 33.5 10.736 33.308 11.072ZM36.668 15.764C36.676 15.692 36.684 15.596 36.692 15.476C36.708 15.356 36.716 15.256 36.716 15.176C36.708 14.928 36.7 14.62 36.692 14.252C36.692 13.884 36.692 13.488 36.692 13.064C36.7 12.64 36.708 12.2 36.716 11.744C36.732 11.288 36.744 10.848 36.752 10.424C36.768 10 36.784 9.604 36.8 9.236C36.824 8.86 36.848 8.544 36.872 8.288C36.896 7.92 37.076 7.748 37.412 7.772C37.58 7.796 37.692 7.86 37.748 7.964C37.804 8.068 37.824 8.184 37.808 8.312C37.784 8.568 37.764 8.88 37.748 9.248C37.732 9.616 37.716 10.012 37.7 10.436C37.692 10.86 37.684 11.3 37.676 11.756C37.676 12.204 37.672 12.64 37.664 13.064C37.664 13.48 37.664 13.872 37.664 14.24C37.664 14.6 37.664 14.904 37.664 15.152C37.672 15.248 37.68 15.34 37.688 15.428C37.696 15.516 37.692 15.62 37.676 15.74C37.676 15.876 37.628 15.992 37.532 16.088C37.436 16.184 37.296 16.228 37.112 16.22C36.952 16.188 36.84 16.136 36.776 16.064C36.712 16 36.676 15.9 36.668 15.764ZM44.7911 13.856C44.4791 13.872 44.1551 13.88 43.8191 13.88C43.4911 13.88 43.1791 13.876 42.8831 13.868C42.8911 13.924 42.8951 14.04 42.8951 14.216C42.9031 14.384 42.9071 14.564 42.9071 14.756C42.9151 14.948 42.9191 15.128 42.9191 15.296C42.9191 15.464 42.9191 15.576 42.9191 15.632C42.9191 15.816 42.9151 15.992 42.9071 16.16C42.8991 16.336 42.8911 16.492 42.8831 16.628C42.8591 16.812 42.8271 16.932 42.7871 16.988C42.7471 17.044 42.6951 17.096 42.6311 17.144C42.5111 17.208 42.4191 17.236 42.3551 17.228C42.1951 17.204 42.0671 17.128 41.9711 17C41.8751 16.872 41.8351 16.712 41.8511 16.52C41.8671 16.408 41.8951 16.288 41.9351 16.16C41.9751 16.04 41.9911 15.94 41.9831 15.86C41.9751 15.804 41.9671 15.692 41.9591 15.524C41.9591 15.364 41.9551 15.184 41.9471 14.984C41.9471 14.784 41.9471 14.584 41.9471 14.384C41.9471 14.176 41.9471 14 41.9471 13.856C41.7311 13.856 41.5071 13.856 41.2751 13.856C41.0431 13.856 40.8191 13.856 40.6031 13.856C40.3871 13.848 40.1871 13.84 40.0031 13.832C39.8191 13.824 39.6631 13.816 39.5351 13.808C39.3431 13.792 39.1791 13.744 39.0431 13.664C38.9071 13.584 38.8431 13.46 38.8511 13.292C38.8591 13.172 38.9071 13.072 38.9951 12.992C39.0831 12.904 39.1951 12.868 39.3311 12.884C39.3951 12.884 39.4831 12.896 39.5951 12.92C39.7071 12.944 39.8111 12.96 39.9071 12.968C40.4831 13.008 41.3991 13.032 42.6551 13.04C42.8071 13.04 42.9871 13.04 43.1951 13.04C43.4111 13.04 43.6191 13.04 43.8191 13.04C44.0271 13.04 44.2151 13.04 44.3831 13.04C44.5591 13.032 44.6911 13.024 44.7791 13.016C44.8831 13 44.9831 12.988 45.0791 12.98C45.1831 12.972 45.2951 12.976 45.4151 12.992C45.5511 13 45.6631 13.052 45.7511 13.148C45.8391 13.244 45.8791 13.348 45.8711 13.46C45.8631 13.78 45.6511 13.932 45.2351 13.916C45.1791 13.908 45.1071 13.9 45.0191 13.892C44.9311 13.884 44.8551 13.872 44.7911 13.856ZM41.0471 7.964C41.1671 7.956 41.3351 7.948 41.5511 7.94C41.7671 7.924 42.0111 7.912 42.2831 7.904C42.5631 7.888 42.8551 7.88 43.1591 7.88C43.4711 7.872 43.7711 7.872 44.0591 7.88C44.2111 7.888 44.3391 7.908 44.4431 7.94C44.5551 7.964 44.6311 8.008 44.6711 8.072C44.6871 8.104 44.7071 8.188 44.7311 8.324C44.7551 8.46 44.7751 8.624 44.7911 8.816C44.8151 9.008 44.8351 9.22 44.8511 9.452C44.8671 9.684 44.8791 9.916 44.8871 10.148C44.8951 10.38 44.8951 10.6 44.8871 10.808C44.8791 11.016 44.8631 11.192 44.8391 11.336C44.8151 11.528 44.7871 11.7 44.7551 11.852C44.7311 11.996 44.7191 12.076 44.7191 12.092C44.7031 12.212 44.6471 12.316 44.5511 12.404C44.4631 12.492 44.3551 12.528 44.2271 12.512C44.0911 12.496 43.9791 12.44 43.8911 12.344C43.8111 12.248 43.7831 12.12 43.8071 11.96C43.8471 11.696 43.8751 11.416 43.8911 11.12C43.9151 10.816 43.9271 10.52 43.9271 10.232C43.9271 9.936 43.9191 9.656 43.9031 9.392C43.8871 9.128 43.8631 8.904 43.8311 8.72V8.732C43.7751 8.732 43.6711 8.732 43.5191 8.732C43.3671 8.724 43.2031 8.72 43.0271 8.72C42.8591 8.72 42.6911 8.72 42.5231 8.72C42.3631 8.712 42.2431 8.708 42.1631 8.708C42.0511 8.708 41.9111 8.716 41.7431 8.732C41.5831 8.74 41.4151 8.752 41.2391 8.768C41.0631 8.776 40.8911 8.788 40.7231 8.804C40.5551 8.82 40.4111 8.832 40.2911 8.84C40.0431 8.864 39.8631 8.784 39.7511 8.6C39.6951 8.512 39.6831 8.404 39.7151 8.276C39.7551 8.14 39.8191 8.052 39.9071 8.012C39.9951 7.964 40.1031 7.936 40.2311 7.928C40.3671 7.912 40.4831 7.924 40.5791 7.964C40.6511 7.956 40.7231 7.956 40.7951 7.964C40.8751 7.972 40.9591 7.972 41.0471 7.964ZM51.2216 10.7C51.0696 10.7 50.9656 10.66 50.9096 10.58C50.9096 10.612 50.9096 10.64 50.9096 10.664C50.9176 10.688 50.9216 10.712 50.9216 10.736C50.9216 10.848 50.9216 10.968 50.9216 11.096C50.9296 11.216 50.9216 11.332 50.8976 11.444C50.8736 11.548 50.8296 11.644 50.7656 11.732C50.7016 11.812 50.6016 11.868 50.4656 11.9C50.3056 11.948 50.1016 12 49.8536 12.056C49.6136 12.104 49.3656 12.152 49.1096 12.2C48.8536 12.248 48.6056 12.288 48.3656 12.32C48.1256 12.352 47.9336 12.368 47.7896 12.368C47.3656 12.368 47.1336 12.168 47.0936 11.768C47.0696 11.496 47.0496 11.244 47.0336 11.012C47.0256 10.772 47.0176 10.536 47.0096 10.304C47.0096 10.072 47.0096 9.836 47.0096 9.596C47.0096 9.348 47.0096 9.084 47.0096 8.804C47.0096 8.644 46.9896 8.48 46.9496 8.312C46.9176 8.144 46.9016 7.964 46.9016 7.772C46.9016 7.636 46.9256 7.508 46.9736 7.388C47.0296 7.268 47.1256 7.2 47.2616 7.184C47.4456 7.16 47.5736 7.188 47.6456 7.268C47.7176 7.348 47.7656 7.468 47.7896 7.628C47.8136 7.82 47.8296 8.016 47.8376 8.216C47.8536 8.408 47.8656 8.592 47.8736 8.768C47.8816 8.936 47.8856 9.088 47.8856 9.224C47.8856 9.352 47.8856 9.448 47.8856 9.512C48.0296 9.488 48.2016 9.468 48.4016 9.452C48.6096 9.436 48.8136 9.42 49.0136 9.404C49.2216 9.38 49.4176 9.36 49.6016 9.344C49.7856 9.328 49.9336 9.308 50.0456 9.284C50.0296 9.076 50.0176 8.896 50.0096 8.744C50.0096 8.584 50.0016 8.452 49.9856 8.348C49.9696 8.228 49.9536 8.116 49.9376 8.012C49.9296 7.9 49.9256 7.808 49.9256 7.736C49.9256 7.608 49.9656 7.508 50.0456 7.436C50.1256 7.356 50.2216 7.316 50.3336 7.316C50.4936 7.316 50.6056 7.368 50.6696 7.472C50.7416 7.576 50.7816 7.708 50.7896 7.868C50.8056 8.004 50.8176 8.148 50.8256 8.3C50.8336 8.444 50.8416 8.596 50.8496 8.756C50.8816 8.716 50.9216 8.68 50.9696 8.648C51.0256 8.616 51.0976 8.596 51.1856 8.588C51.4976 8.564 51.7896 8.556 52.0616 8.564C52.3416 8.572 52.6576 8.596 53.0096 8.636C53.0096 8.516 53.0096 8.408 53.0096 8.312C53.0176 8.216 53.0296 8.12 53.0456 8.024C53.0616 7.744 53.1896 7.604 53.4296 7.604C53.5416 7.604 53.6376 7.64 53.7176 7.712C53.7976 7.776 53.8376 7.876 53.8376 8.012C53.8376 8.316 53.8336 8.644 53.8256 8.996C53.8176 9.34 53.8096 9.684 53.8016 10.028C53.8016 10.364 53.7976 10.684 53.7896 10.988C53.7816 11.292 53.7776 11.552 53.7776 11.768C53.7776 11.872 53.7416 11.968 53.6696 12.056C53.6056 12.136 53.4936 12.176 53.3336 12.176C53.2056 12.176 53.1056 12.12 53.0336 12.008C52.9616 11.888 52.9336 11.748 52.9496 11.588L52.9856 10.76C52.6816 10.736 52.3696 10.72 52.0496 10.712C51.7296 10.704 51.4536 10.7 51.2216 10.7ZM49.8536 12.392C50.0136 12.408 50.1816 12.42 50.3576 12.428C50.5416 12.436 50.7176 12.444 50.8856 12.452C51.0536 12.452 51.2056 12.452 51.3416 12.452C51.4856 12.444 51.6016 12.436 51.6896 12.428L52.2896 12.404C52.4976 12.388 52.6496 12.408 52.7456 12.464C52.8496 12.52 52.9216 12.648 52.9616 12.848C52.9776 12.944 52.9856 13.064 52.9856 13.208C52.9856 13.352 52.9816 13.504 52.9736 13.664C52.9656 13.816 52.9536 13.968 52.9376 14.12C52.9216 14.264 52.9056 14.388 52.8896 14.492C52.8656 14.676 52.8456 14.828 52.8296 14.948C52.8136 15.06 52.7896 15.148 52.7576 15.212C52.7256 15.276 52.6776 15.324 52.6136 15.356C52.5576 15.38 52.4776 15.392 52.3736 15.392C52.3176 15.392 52.2536 15.392 52.1816 15.392C52.1176 15.392 52.0416 15.384 51.9536 15.368C51.6736 15.328 51.3776 15.288 51.0656 15.248C50.7536 15.2 50.4536 15.164 50.1656 15.14C50.0776 15.516 50.0176 15.912 49.9856 16.328C49.9696 16.448 49.9936 16.528 50.0576 16.568C50.1216 16.608 50.1976 16.632 50.2856 16.64C50.3736 16.648 50.4856 16.652 50.6216 16.652C50.7576 16.652 50.8816 16.652 50.9936 16.652C51.1776 16.652 51.3656 16.652 51.5576 16.652C51.7496 16.652 51.9496 16.66 52.1576 16.676C52.4216 16.668 52.6176 16.668 52.7456 16.676C52.8736 16.692 52.9736 16.7 53.0456 16.7C53.5176 16.7 53.7496 16.86 53.7416 17.18C53.7336 17.34 53.6736 17.448 53.5616 17.504C53.4496 17.568 53.3136 17.592 53.1536 17.576C53.0176 17.576 52.9016 17.564 52.8056 17.54C52.7176 17.524 52.6416 17.512 52.5776 17.504H52.5896C52.3656 17.472 52.1336 17.456 51.8936 17.456C51.6536 17.456 51.4176 17.456 51.1856 17.456C50.9696 17.456 50.7776 17.452 50.6096 17.444C50.4496 17.444 50.2896 17.44 50.1296 17.432C49.7616 17.416 49.4976 17.34 49.3376 17.204C49.1776 17.068 49.0976 16.852 49.0976 16.556C49.0976 16.412 49.1056 16.26 49.1216 16.1C49.1376 15.948 49.1576 15.796 49.1816 15.644C49.2056 15.492 49.2296 15.348 49.2536 15.212C49.2776 15.068 49.2976 14.944 49.3136 14.84C49.3536 14.68 49.4176 14.552 49.5056 14.456C49.5936 14.352 49.7376 14.308 49.9376 14.324C50.3456 14.348 50.6896 14.38 50.9696 14.42C51.2496 14.46 51.4976 14.488 51.7136 14.504C51.8576 14.52 51.9416 14.504 51.9656 14.456C51.9976 14.4 52.0216 14.288 52.0376 14.12C52.0616 13.992 52.0736 13.868 52.0736 13.748C52.0736 13.628 52.0696 13.5 52.0616 13.364C52.0616 13.332 52.0416 13.308 52.0016 13.292C51.9696 13.268 51.9296 13.256 51.8816 13.256C51.5456 13.272 51.2216 13.284 50.9096 13.292C50.6056 13.3 50.2616 13.284 49.8776 13.244C49.6856 13.228 49.5456 13.176 49.4576 13.088C49.3696 13 49.3256 12.892 49.3256 12.764C49.3256 12.644 49.3696 12.548 49.4576 12.476C49.5456 12.404 49.6776 12.376 49.8536 12.392ZM50.0456 10.148C49.9256 10.164 49.7616 10.184 49.5536 10.208C49.3456 10.224 49.1296 10.24 48.9056 10.256C48.6816 10.272 48.4736 10.288 48.2816 10.304C48.0896 10.32 47.9496 10.332 47.8616 10.34C47.8616 10.372 47.8616 10.424 47.8616 10.496C47.8616 10.568 47.8616 10.652 47.8616 10.748C47.8696 10.844 47.8736 10.944 47.8736 11.048C47.8736 11.144 47.8736 11.232 47.8736 11.312C47.8816 11.432 47.9496 11.492 48.0776 11.492C48.1576 11.492 48.2816 11.48 48.4496 11.456C48.6256 11.432 48.8056 11.408 48.9896 11.384C49.1816 11.352 49.3616 11.32 49.5296 11.288C49.6976 11.248 49.8256 11.216 49.9136 11.192C49.9856 11.176 50.0296 11.148 50.0456 11.108C50.0696 11.068 50.0776 11.004 50.0696 10.916L50.0456 10.148ZM50.8856 10.076C50.9656 9.972 51.0736 9.92 51.2096 9.92C51.3056 9.92 51.4256 9.92 51.5696 9.92C51.7136 9.92 51.8656 9.924 52.0256 9.932C52.1936 9.94 52.3616 9.948 52.5296 9.956C52.6976 9.964 52.8536 9.976 52.9976 9.992C53.0056 9.856 53.0096 9.732 53.0096 9.62C53.0096 9.5 53.0096 9.408 53.0096 9.344C52.6736 9.312 52.3616 9.296 52.0736 9.296C51.7856 9.296 51.4936 9.304 51.1976 9.32C51.0536 9.328 50.9416 9.288 50.8616 9.2L50.8856 10.076Z" fill="black"/>
<defs>
<clipPath id="clip0_1592_5844">
<rect width="24" height="24" fill="white" transform="translate(1)"/>
</clipPath>
</defs>
</svg>
