<svg width="24" height="24" viewBox="0 0 24 24" fill="none" xmlns="http://www.w3.org/2000/svg">
<g clip-path="url(#clip0_2028_5464)">
<path d="M5.05534 16.085C5.81374 16.085 6.54106 15.7837 7.07733 15.2475C7.61359 14.7112 7.91486 13.9839 7.91486 13.2255V10.7745C7.91486 10.0161 8.21613 9.28877 8.75239 8.7525C9.28865 8.21624 10.016 7.91497 10.7744 7.91497C11.5328 7.91497 12.2601 7.6137 12.7964 7.07744C13.3326 6.54118 13.6339 5.81384 13.6339 5.05546V1.50384C13.1013 1.42161 12.5556 1.37894 12 1.37894C6.13411 1.37894 1.37891 6.13415 1.37891 12C1.37891 13.4476 1.6685 14.8275 2.19292 16.085H5.05534Z" fill="#1611ED"/>
<path d="M18.5404 20.3692C21.0246 18.4252 22.6211 15.399 22.6211 12.0001C22.6211 11.9453 22.6208 11.8907 22.6199 11.8361C21.802 11.412 20.895 11.1881 19.9737 11.1831H16.4933C15.7349 11.1831 15.0076 11.4843 14.4713 12.0206C13.9351 12.5569 13.6338 13.2842 13.6338 14.0426C13.6338 14.801 13.9351 15.5283 14.4713 16.0646C15.0076 16.6008 15.7349 16.9021 16.4933 16.9021C17.035 16.9021 17.5545 17.1173 17.9375 17.5003C18.3206 17.8835 18.5358 18.4029 18.5358 18.9446V20.3663L18.5404 20.3692Z" fill="#1611ED"/>
<path d="M5.05534 16.085C5.81374 16.085 6.54106 15.7837 7.07733 15.2475C7.61359 14.7112 7.91486 13.9839 7.91486 13.2255V10.7745C7.91486 10.0161 8.21613 9.28877 8.75239 8.7525C9.28865 8.21624 10.016 7.91497 10.7744 7.91497C11.5328 7.91497 12.2601 7.6137 12.7964 7.07744C13.3326 6.54118 13.6339 5.81384 13.6339 5.05546V1.50384C13.1013 1.42161 12.5556 1.37894 12 1.37894C6.13411 1.37894 1.37891 6.13415 1.37891 12C1.37891 13.4476 1.6685 14.8275 2.19292 16.085H5.05534Z" stroke="black" stroke-width="3" stroke-linecap="round" stroke-linejoin="round"/>
<path d="M12.0004 22.6209C14.4673 22.6209 16.7377 21.7799 18.5406 20.3689L18.5362 20.3659V18.9443C18.5362 18.4026 18.321 17.8831 17.9379 17.5C17.5549 17.117 17.0354 16.9018 16.4936 16.9018C15.7353 16.9018 15.0079 16.6006 14.4717 16.0643C13.9354 15.528 13.6341 14.8007 13.6341 14.0423C13.6341 13.2839 13.9354 12.5566 14.4717 12.0203C15.0079 11.4841 15.7353 11.1828 16.4936 11.1828H19.9741C20.8954 11.1879 21.8022 11.4117 22.6201 11.8359C22.5411 6.61073 18.6889 2.30042 13.6674 1.50882L13.6342 1.50366V5.05527C13.6342 5.81365 13.333 6.54099 12.7967 7.07725C12.2604 7.61352 11.5331 7.91479 10.7747 7.91479C10.0163 7.91479 9.28899 8.21605 8.75273 8.75232C8.21647 9.28858 7.9152 10.0159 7.9152 10.7743V13.2253C7.9152 13.9837 7.61393 14.711 7.07767 15.2473C6.54141 15.7836 5.81409 16.0848 5.05569 16.0848H2.19336C3.79397 19.923 7.58213 22.6209 12.0004 22.6209Z" stroke="black" stroke-width="3" stroke-linecap="round" stroke-linejoin="round"/>
<path d="M18.5404 20.3692C21.0246 18.4252 22.6211 15.399 22.6211 12.0001C22.6211 11.9453 22.6208 11.8907 22.6199 11.8361C21.802 11.412 20.895 11.1881 19.9737 11.1831H16.4933C15.7349 11.1831 15.0076 11.4843 14.4713 12.0206C13.9351 12.5569 13.6338 13.2842 13.6338 14.0426C13.6338 14.801 13.9351 15.5283 14.4713 16.0646C15.0076 16.6008 15.7349 16.9021 16.4933 16.9021C17.035 16.9021 17.5545 17.1173 17.9375 17.5003C18.3206 17.8835 18.5358 18.4029 18.5358 18.9446V20.3663L18.5404 20.3692Z" stroke="black" stroke-width="3" stroke-linecap="round" stroke-linejoin="round"/>
<path d="M12.207 22.3173C14.6738 22.3173 16.9443 21.4762 18.7472 20.0652L18.7428 20.0623V18.6406C18.7428 18.0989 18.5274 17.5795 18.1445 17.1963C17.7615 16.8134 17.2419 16.5982 16.7002 16.5982C15.9418 16.5982 15.2145 16.2969 14.6782 15.7606C14.142 15.2244 13.8407 14.497 13.8407 13.7387C13.8407 12.9803 14.142 12.2529 14.6782 11.7167C15.2145 11.1804 15.9418 10.8791 16.7002 10.8791H20.1807C21.102 10.8842 22.0088 11.1081 22.8267 11.5322C22.7477 6.30706 18.8955 1.99675 13.874 1.20515L13.8408 1.2V4.75161C13.8408 5.50999 13.5395 6.23733 13.0033 6.77359C12.467 7.30985 11.7397 7.61112 10.9813 7.61112C10.2229 7.61112 9.49555 7.91239 8.95929 8.44865C8.42303 8.98492 8.12176 9.71225 8.12176 10.4706V12.9217C8.12176 13.68 7.82049 14.4074 7.28423 14.9436C6.74796 15.4799 6.02063 15.7812 5.26224 15.7812H2.3999C4.00051 19.6193 7.78869 22.3173 12.207 22.3173Z" fill="#52B325"/>
</g>
<defs>
<clipPath id="clip0_2028_5464">
<rect width="24" height="24" fill="white"/>
</clipPath>
</defs>
</svg>
