<svg width="24" height="24" viewBox="0 0 24 24" fill="none" xmlns="http://www.w3.org/2000/svg">
<g clip-path="url(#clip0_1592_5873)">
<path fill-rule="evenodd" clip-rule="evenodd" d="M14.1035 0.0409404L1.39566 0.992751C0.367279 1.06597 0 1.76152 0 2.5669V16.478C0 17.1003 0.220367 17.6494 0.771285 18.345L3.74624 22.2254C4.22371 22.8478 4.70117 22.9942 5.61937 22.921L20.384 22.0424C21.6327 21.9692 22 21.3835 22 20.395V4.72678C22 4.21426 21.8164 4.06783 21.192 3.62853C21.1553 3.59193 21.1185 3.59193 21.0818 3.55532L17.0417 0.736494C16.0868 0.00433234 15.6828 -0.0688839 14.1035 0.0409404ZM5.94992 4.47052C4.7379 4.54374 4.4808 4.58034 3.78297 3.99461L2.05676 2.64012C1.87312 2.45707 1.94658 2.23743 2.42404 2.20082L14.6544 1.32222C15.6828 1.24901 16.197 1.57848 16.601 1.90795L18.6945 3.40889C18.8047 3.44549 19.025 3.70175 18.7312 3.70175L6.09683 4.47052H5.94992ZM4.55426 20.2486V6.95987C4.55426 6.37414 4.7379 6.11789 5.25209 6.08128L19.7596 5.23929C20.2371 5.20268 20.4574 5.49555 20.4574 6.08128V19.2602C20.4574 19.8459 20.3472 20.3218 19.576 20.3584L5.69282 21.1638C4.92154 21.237 4.55426 20.9442 4.55426 20.2486ZM18.2538 7.69203C18.3272 8.09472 18.2538 8.49741 17.8497 8.53402L17.1886 8.68045V18.4914C16.601 18.8209 16.0868 18.9673 15.6461 18.9673C14.9482 18.9673 14.7646 18.7477 14.2137 18.0887L9.80634 11.2064V17.8325L11.202 18.1619C11.202 18.1619 11.202 18.9673 10.1002 18.9673L7.01503 19.1504C6.94157 18.9673 7.01502 18.528 7.30885 18.4548L8.11686 18.2352V9.44922L7.01503 9.3394C6.94157 8.93671 7.16194 8.35098 7.78631 8.31437L11.0918 8.09472L15.6461 15.0503V8.9001L14.4708 8.75367C14.3973 8.27776 14.7279 7.91168 15.1686 7.87507L18.2538 7.69203Z" fill="#111827"/>
</g>
<defs>
<clipPath id="clip0_1592_5873">
<rect width="22" height="22.9383" fill="white"/>
</clipPath>
</defs>
</svg>
