<svg width="24" height="24" viewBox="0 0 24 24" fill="none" xmlns="http://www.w3.org/2000/svg">
<path d="M12.0005 3C7.03034 3 3 7.02928 3 12.0005C3 15.6848 5.21626 18.8515 8.38825 20.2433C8.36285 19.6156 8.38402 18.8599 8.54384 18.1762C8.71741 17.4459 9.70171 13.2727 9.70171 13.2727C9.70171 13.2727 9.41489 12.698 9.41489 11.8481C9.41489 10.5146 10.1886 9.51861 11.1506 9.51861C11.9688 9.51861 12.3646 10.1335 12.3646 10.8702C12.3646 11.6925 11.8397 12.9234 11.5698 14.0633C11.3443 15.0191 12.0482 15.797 12.9901 15.797C14.6952 15.797 15.8435 13.6072 15.8435 11.012C15.8435 9.04022 14.5153 7.56377 12.099 7.56377C9.36938 7.56377 7.66855 9.59905 7.66855 11.8725C7.66855 12.6578 7.89928 13.2103 8.26125 13.6379C8.42847 13.8358 8.4507 13.9141 8.39037 14.1406C8.34803 14.3046 8.24854 14.7047 8.20727 14.8624C8.14694 15.09 7.96278 15.1725 7.75745 15.0878C6.49903 14.5745 5.91374 13.1976 5.91374 11.6491C5.91374 9.09314 8.06968 6.02593 12.3456 6.02593C15.7821 6.02593 18.0439 8.5142 18.0439 11.1824C18.0439 14.7132 16.0817 17.3507 13.187 17.3507C12.2164 17.3507 11.302 16.8257 10.9887 16.2298C10.9887 16.2298 10.4659 18.3032 10.3558 18.7033C10.1653 19.3965 9.79167 20.0908 9.44981 20.6306C10.2595 20.8698 11.1147 21 12.0005 21C16.9707 21 21 16.9707 21 12.0005C21 7.02928 16.9707 3 12.0005 3Z" fill="#111827"/>
</svg>
